<svg width="120" height="24" fill="none" xmlns="http://www.w3.org/2000/svg"><path d="M0 .406h4.206l7.264 17.369L18.715.405h4.244l-9.154 21.68a2.524 2.524 0 01-2.335 1.547 2.543 2.543 0 01-2.335-1.547L0 .405zm28.499 0h14.046V4.07H32.353v5.95h8.227v3.665h-8.227v6.28h10.192v3.666H28.499V.406zm19.92 19.413l3.02-2.395c1.223 1.86 3.15 2.984 5.43 2.984 2.205 0 3.78-1.142 3.78-2.873 0-1.676-1.094-2.708-3.317-3.537l-2.576-.92c-3.724-1.345-5.522-3.371-5.522-6.54 0-4.05 3.261-6.538 7.597-6.538 2.891 0 5.374 1.105 7.079 3.168l-2.668 2.579c-1.186-1.4-2.594-2.155-4.447-2.155-1.965 0-3.688.976-3.688 2.689s1.149 2.45 3.558 3.334l2.372.884c3.446 1.27 5.521 3.297 5.503 6.796 0 4.052-3.224 6.705-7.801 6.705-3.743.018-6.949-1.658-8.32-4.181zm39.005 3.794L74.268 6.907v16.706h-3.854V.406h3.354l13.138 16.687V.406h3.891v23.226l-3.373-.019zM108.123.406c1.019 0 1.945.607 2.353 1.528L120 23.632h-4.021l-2.668-6.078h-10.469l-2.632 6.078h-3.983l9.542-21.698a2.554 2.554 0 012.354-1.528zm-3.78 13.722h7.504l-3.743-8.565-3.761 8.565z" fill="#000"/></svg>