<svg width="30" height="30" fill="none" xmlns="http://www.w3.org/2000/svg"><path d="M9.414.5h2.047l3.536 8.732L18.52.5h2.06l-4.447 10.902c-.095.23-.253.425-.455.562a1.208 1.208 0 01-1.36 0 1.252 1.252 0 01-.45-.562L9.413.5zM0 12.715l1.027-1.827 9.119 1.22-5.596-7.5 1.033-1.833 6.963 9.412a1.301 1.301 0 01.083 1.392c-.121.215-.301.39-.518.5a1.2 1.2 0 01-.701.12L0 12.715zm5.583 14.51l-1.02-1.847 5.583-7.512-9.113 1.233L0 17.259l11.41-1.484c.24-.032.484.01.7.12.218.11.398.284.519.5a1.301 1.301 0 01-.083 1.392l-6.963 9.438zM20.58 29.5h-2.047l-3.536-8.759-3.517 8.733H9.414l4.453-10.903a1.25 1.25 0 01.452-.56 1.203 1.203 0 011.359-.001c.202.137.36.332.455.561L20.58 29.5zM30 17.259l-1.027 1.827-9.125-1.22 5.596 7.499-1.027 1.833-6.963-9.411a1.282 1.282 0 01-.083-1.392c.121-.22.304-.398.525-.508.222-.111.47-.15.714-.112L30 17.259zm-5.583-14.51l1.02 1.82-5.589 7.539 9.119-1.233L30 12.715l-11.39 1.484c-.24.032-.483-.01-.699-.12a1.227 1.227 0 01-.514-.5 1.289 1.289 0 01.083-1.392l6.937-9.438z" fill="#FFC629"/></svg>