<svg width="20" height="20" fill="none" xmlns="http://www.w3.org/2000/svg"><path d="M10 2.5c-4.14 0-7.5 3.36-7.5 7.5 0 4.14 3.36 7.5 7.5 7.5 4.14 0 7.5-3.36 7.5-7.5 0-4.14-3.36-7.5-7.5-7.5zm3.48 5.1c-.113 1.185-.6 4.065-.848 5.393-.104.562-.314.75-.51.772-.434.037-.764-.285-1.184-.563-.66-.434-1.036-.704-1.673-1.124-.742-.488-.263-.758.165-1.193.113-.112 2.033-1.86 2.07-2.018a.15.15 0 00-.037-.135c-.045-.037-.105-.022-.158-.014-.067.014-1.117.712-3.165 2.092-.3.202-.57.307-.81.3-.27-.008-.78-.15-1.162-.277-.473-.15-.84-.233-.81-.495.014-.135.202-.27.554-.413 2.19-.953 3.645-1.583 4.373-1.883 2.085-.87 2.512-1.02 2.797-1.02.06 0 .203.015.293.09.075.06.098.143.105.203-.008.045.008.18 0 .285z" fill="#000" opacity=".9"/></svg>