<svg width="600" height="238" viewBox="0 0 600 238" fill="none" xmlns="http://www.w3.org/2000/svg">
<g clip-path="url(#clip0_181_184)">
<mask id="path-1-inside-1_181_184" fill="white">
<path d="M0 0H600V238H0V0Z"/>
</mask>
<path d="M0 0H600V238H0V0Z" fill="white"/>
<path d="M144.066 94V93.28C144.882 93.232 145.494 93.136 145.902 92.992C146.334 92.848 146.622 92.56 146.766 92.128C146.91 91.696 146.982 91.048 146.982 90.184V72.328C146.982 71.44 146.91 70.792 146.766 70.384C146.622 69.952 146.334 69.664 145.902 69.52C145.494 69.352 144.882 69.256 144.066 69.232V68.512C144.618 68.536 145.314 68.56 146.154 68.584C146.994 68.608 147.822 68.62 148.638 68.62C149.574 68.62 150.45 68.608 151.266 68.584C152.082 68.56 152.742 68.536 153.246 68.512V69.232C152.43 69.256 151.806 69.352 151.374 69.52C150.966 69.664 150.69 69.952 150.546 70.384C150.402 70.792 150.33 71.44 150.33 72.328V90.184C150.33 91.048 150.402 91.696 150.546 92.128C150.69 92.56 150.966 92.848 151.374 92.992C151.806 93.136 152.43 93.232 153.246 93.28V94C152.742 93.952 152.082 93.928 151.266 93.928C150.45 93.904 149.574 93.892 148.638 93.892C147.822 93.892 146.994 93.904 146.154 93.928C145.314 93.928 144.618 93.952 144.066 94ZM129.018 94V93.28C129.834 93.232 130.446 93.136 130.854 92.992C131.286 92.848 131.574 92.56 131.718 92.128C131.862 91.696 131.934 91.048 131.934 90.184V72.328C131.934 71.44 131.862 70.792 131.718 70.384C131.574 69.952 131.286 69.664 130.854 69.52C130.446 69.352 129.834 69.256 129.018 69.232V68.512C129.522 68.536 130.182 68.56 130.998 68.584C131.814 68.608 132.69 68.62 133.626 68.62C134.466 68.62 135.294 68.608 136.11 68.584C136.95 68.56 137.646 68.536 138.198 68.512V69.232C137.382 69.256 136.758 69.352 136.326 69.52C135.918 69.664 135.642 69.952 135.498 70.384C135.354 70.792 135.282 71.44 135.282 72.328V90.184C135.282 91.048 135.354 91.696 135.498 92.128C135.642 92.56 135.918 92.848 136.326 92.992C136.758 93.136 137.382 93.232 138.198 93.28V94C137.646 93.952 136.95 93.928 136.11 93.928C135.294 93.904 134.466 93.892 133.626 93.892C132.69 93.892 131.814 93.904 130.998 93.928C130.182 93.928 129.522 93.952 129.018 94ZM134.022 81.544V80.824H148.242V81.544H134.022ZM177.684 68.512V69.232C177.228 69.328 176.736 69.604 176.208 70.06C175.704 70.516 175.248 71.284 174.84 72.364L166.38 94.18C166.332 94.18 166.284 94.18 166.236 94.18C166.188 94.18 166.14 94.18 166.092 94.18C166.044 94.18 165.996 94.18 165.948 94.18C165.9 94.18 165.852 94.18 165.804 94.18L157.02 71.536C156.66 70.624 156.252 70.024 155.796 69.736C155.34 69.424 154.92 69.256 154.536 69.232V68.512C155.016 68.536 155.604 68.56 156.3 68.584C157.02 68.608 157.716 68.62 158.388 68.62C159.324 68.62 160.2 68.608 161.016 68.584C161.832 68.56 162.492 68.536 162.996 68.512V69.232C162.18 69.256 161.556 69.352 161.124 69.52C160.716 69.688 160.488 69.988 160.44 70.42C160.416 70.828 160.56 71.44 160.872 72.256L167.568 90.004L166.992 90.616L173.256 74.344C173.76 73.048 174 72.04 173.976 71.32C173.952 70.576 173.676 70.048 173.148 69.736C172.62 69.424 171.852 69.256 170.844 69.232V68.512C171.54 68.536 172.248 68.56 172.968 68.584C173.688 68.608 174.36 68.62 174.984 68.62C175.608 68.62 176.124 68.608 176.532 68.584C176.94 68.56 177.324 68.536 177.684 68.512ZM186.735 68.332L195.519 90.976C195.879 91.888 196.287 92.5 196.743 92.812C197.199 93.1 197.619 93.256 198.003 93.28V94C197.523 93.952 196.935 93.928 196.239 93.928C195.543 93.904 194.847 93.892 194.151 93.892C193.215 93.892 192.339 93.904 191.523 93.928C190.707 93.928 190.047 93.952 189.543 94V93.28C190.767 93.232 191.547 93.028 191.883 92.668C192.219 92.284 192.147 91.48 191.667 90.256L184.971 72.364L185.547 71.896L179.283 88.168C178.899 89.128 178.671 89.944 178.599 90.616C178.527 91.264 178.587 91.78 178.779 92.164C178.995 92.548 179.343 92.824 179.823 92.992C180.327 93.16 180.951 93.256 181.695 93.28V94C181.023 93.952 180.315 93.928 179.571 93.928C178.851 93.904 178.179 93.892 177.555 93.892C176.955 93.892 176.439 93.904 176.007 93.928C175.599 93.928 175.215 93.952 174.855 94V93.28C175.335 93.16 175.827 92.884 176.331 92.452C176.835 91.996 177.291 91.228 177.699 90.148L186.159 68.332C186.255 68.332 186.351 68.332 186.447 68.332C186.543 68.332 186.639 68.332 186.735 68.332ZM191.127 83.632V84.352H180.399L180.759 83.632H191.127ZM207.772 68.512V69.232C206.956 69.256 206.332 69.352 205.9 69.52C205.492 69.664 205.216 69.952 205.072 70.384C204.928 70.792 204.856 71.44 204.856 72.328V90.184C204.856 91.048 204.928 91.696 205.072 92.128C205.216 92.56 205.492 92.848 205.9 92.992C206.332 93.112 206.956 93.172 207.772 93.172H210.4C211.528 93.172 212.44 93.052 213.136 92.812C213.856 92.572 214.42 92.2 214.828 91.696C215.26 91.168 215.584 90.472 215.8 89.608C216.016 88.744 216.184 87.688 216.304 86.44H217.132C217.06 87.184 217.024 88.168 217.024 89.392C217.024 89.848 217.036 90.508 217.06 91.372C217.108 92.212 217.18 93.088 217.276 94C216.052 93.952 214.672 93.928 213.136 93.928C211.6 93.904 210.232 93.892 209.032 93.892C208.504 93.892 207.82 93.892 206.98 93.892C206.164 93.892 205.276 93.904 204.316 93.928C203.356 93.928 202.384 93.94 201.4 93.964C200.416 93.964 199.48 93.976 198.592 94V93.28C199.408 93.232 200.02 93.136 200.428 92.992C200.86 92.848 201.148 92.56 201.292 92.128C201.436 91.696 201.508 91.048 201.508 90.184V72.328C201.508 71.44 201.436 70.792 201.292 70.384C201.148 69.952 200.86 69.664 200.428 69.52C200.02 69.352 199.408 69.256 198.592 69.232V68.512C199.096 68.536 199.756 68.56 200.572 68.584C201.388 68.608 202.264 68.62 203.2 68.62C204.04 68.62 204.868 68.608 205.684 68.584C206.524 68.56 207.22 68.536 207.772 68.512ZM229.872 68.332L238.656 90.976C239.016 91.888 239.424 92.5 239.88 92.812C240.336 93.1 240.756 93.256 241.14 93.28V94C240.66 93.952 240.072 93.928 239.376 93.928C238.68 93.904 237.984 93.892 237.288 93.892C236.352 93.892 235.476 93.904 234.66 93.928C233.844 93.928 233.184 93.952 232.68 94V93.28C233.904 93.232 234.684 93.028 235.02 92.668C235.356 92.284 235.284 91.48 234.804 90.256L228.108 72.364L228.684 71.896L222.42 88.168C222.036 89.128 221.808 89.944 221.736 90.616C221.664 91.264 221.724 91.78 221.916 92.164C222.132 92.548 222.48 92.824 222.96 92.992C223.464 93.16 224.088 93.256 224.832 93.28V94C224.16 93.952 223.452 93.928 222.708 93.928C221.988 93.904 221.316 93.892 220.692 93.892C220.092 93.892 219.576 93.904 219.144 93.928C218.736 93.928 218.352 93.952 217.992 94V93.28C218.472 93.16 218.964 92.884 219.468 92.452C219.972 91.996 220.428 91.228 220.836 90.148L229.296 68.332C229.392 68.332 229.488 68.332 229.584 68.332C229.68 68.332 229.776 68.332 229.872 68.332ZM234.264 83.632V84.352H223.536L223.896 83.632H234.264ZM271.586 68.512V69.232C271.13 69.328 270.638 69.604 270.11 70.06C269.606 70.516 269.15 71.284 268.742 72.364L260.282 94.18C260.234 94.18 260.186 94.18 260.138 94.18C260.09 94.18 260.042 94.18 259.994 94.18C259.946 94.18 259.898 94.18 259.85 94.18C259.802 94.18 259.754 94.18 259.706 94.18L250.922 71.536C250.562 70.624 250.154 70.024 249.698 69.736C249.242 69.424 248.822 69.256 248.438 69.232V68.512C248.918 68.536 249.506 68.56 250.202 68.584C250.922 68.608 251.618 68.62 252.29 68.62C253.226 68.62 254.102 68.608 254.918 68.584C255.734 68.56 256.394 68.536 256.898 68.512V69.232C256.082 69.256 255.458 69.352 255.026 69.52C254.618 69.688 254.39 69.988 254.342 70.42C254.318 70.828 254.462 71.44 254.774 72.256L261.47 90.004L260.894 90.616L267.158 74.344C267.662 73.048 267.902 72.04 267.878 71.32C267.854 70.576 267.578 70.048 267.05 69.736C266.522 69.424 265.754 69.256 264.746 69.232V68.512C265.442 68.536 266.15 68.56 266.87 68.584C267.59 68.608 268.262 68.62 268.886 68.62C269.51 68.62 270.026 68.608 270.434 68.584C270.842 68.56 271.226 68.536 271.586 68.512ZM280.638 68.332L289.422 90.976C289.782 91.888 290.19 92.5 290.646 92.812C291.102 93.1 291.522 93.256 291.906 93.28V94C291.426 93.952 290.838 93.928 290.142 93.928C289.446 93.904 288.75 93.892 288.054 93.892C287.118 93.892 286.242 93.904 285.426 93.928C284.61 93.928 283.95 93.952 283.446 94V93.28C284.67 93.232 285.45 93.028 285.786 92.668C286.122 92.284 286.05 91.48 285.57 90.256L278.874 72.364L279.45 71.896L273.186 88.168C272.802 89.128 272.574 89.944 272.502 90.616C272.43 91.264 272.49 91.78 272.682 92.164C272.898 92.548 273.246 92.824 273.726 92.992C274.23 93.16 274.854 93.256 275.598 93.28V94C274.926 93.952 274.218 93.928 273.474 93.928C272.754 93.904 272.082 93.892 271.458 93.892C270.858 93.892 270.342 93.904 269.91 93.928C269.502 93.928 269.118 93.952 268.758 94V93.28C269.238 93.16 269.73 92.884 270.234 92.452C270.738 91.996 271.194 91.228 271.602 90.148L280.062 68.332C280.158 68.332 280.254 68.332 280.35 68.332C280.446 68.332 280.542 68.332 280.638 68.332ZM285.03 83.632V84.352H274.302L274.662 83.632H285.03ZM320.826 68.512V69.232C320.01 69.256 319.386 69.352 318.954 69.52C318.546 69.664 318.27 69.952 318.126 70.384C317.982 70.792 317.91 71.44 317.91 72.328V90.184C317.91 91.048 317.982 91.696 318.126 92.128C318.27 92.56 318.546 92.848 318.954 92.992C319.386 93.136 320.01 93.232 320.826 93.28V94C320.274 93.952 319.578 93.928 318.738 93.928C317.922 93.904 317.094 93.892 316.254 93.892C315.318 93.892 314.442 93.904 313.626 93.928C312.81 93.928 312.15 93.952 311.646 94V93.28C312.462 93.232 313.074 93.136 313.482 92.992C313.914 92.848 314.202 92.56 314.346 92.128C314.49 91.696 314.562 91.048 314.562 90.184V70.384L314.706 70.492L305.886 94.18H305.31L296.238 70.816V89.824C296.238 90.688 296.31 91.372 296.454 91.876C296.622 92.356 296.934 92.704 297.39 92.92C297.87 93.112 298.578 93.232 299.514 93.28V94C299.082 93.952 298.518 93.928 297.822 93.928C297.126 93.904 296.466 93.892 295.842 93.892C295.242 93.892 294.63 93.904 294.006 93.928C293.406 93.928 292.902 93.952 292.494 94V93.28C293.31 93.232 293.922 93.112 294.33 92.92C294.762 92.704 295.05 92.356 295.194 91.876C295.338 91.372 295.41 90.688 295.41 89.824V72.328C295.41 71.44 295.338 70.792 295.194 70.384C295.05 69.952 294.762 69.664 294.33 69.52C293.922 69.352 293.31 69.256 292.494 69.232V68.512C292.902 68.536 293.406 68.56 294.006 68.584C294.63 68.608 295.242 68.62 295.842 68.62C296.37 68.62 296.91 68.608 297.462 68.584C298.038 68.56 298.518 68.536 298.902 68.512L307.074 90.04L306.462 90.328L314.562 68.62C314.85 68.62 315.126 68.62 315.39 68.62C315.678 68.62 315.966 68.62 316.254 68.62C317.094 68.62 317.922 68.608 318.738 68.584C319.578 68.56 320.274 68.536 320.826 68.512ZM340.523 68.116C341.723 68.116 342.635 68.26 343.259 68.548C343.883 68.812 344.435 69.112 344.915 69.448C345.203 69.616 345.431 69.748 345.599 69.844C345.791 69.916 345.971 69.952 346.139 69.952C346.379 69.952 346.547 69.82 346.643 69.556C346.763 69.292 346.859 68.896 346.931 68.368H347.759C347.735 68.776 347.699 69.268 347.651 69.844C347.627 70.396 347.603 71.14 347.579 72.076C347.579 72.988 347.579 74.2 347.579 75.712H346.751C346.679 74.56 346.427 73.456 345.995 72.4C345.563 71.344 344.927 70.48 344.087 69.808C343.271 69.136 342.191 68.8 340.847 68.8C339.575 68.8 338.519 69.184 337.679 69.952C336.863 70.72 336.455 71.728 336.455 72.976C336.455 74.056 336.731 74.968 337.283 75.712C337.835 76.432 338.567 77.092 339.479 77.692C340.415 78.268 341.423 78.892 342.503 79.564C343.751 80.332 344.855 81.1 345.815 81.868C346.799 82.612 347.567 83.44 348.119 84.352C348.695 85.264 348.983 86.368 348.983 87.664C348.983 89.2 348.635 90.472 347.939 91.48C347.243 92.488 346.319 93.244 345.167 93.748C344.015 94.252 342.743 94.504 341.351 94.504C340.079 94.504 339.071 94.36 338.327 94.072C337.583 93.784 336.947 93.484 336.419 93.172C335.891 92.836 335.483 92.668 335.195 92.668C334.955 92.668 334.775 92.8 334.655 93.064C334.559 93.328 334.475 93.724 334.403 94.252H333.575C333.623 93.748 333.647 93.16 333.647 92.488C333.671 91.792 333.683 90.892 333.683 89.788C333.707 88.684 333.719 87.292 333.719 85.612H334.547C334.643 87.052 334.907 88.396 335.339 89.644C335.795 90.892 336.479 91.9 337.391 92.668C338.327 93.412 339.563 93.784 341.099 93.784C341.891 93.784 342.635 93.628 343.331 93.316C344.051 92.98 344.639 92.464 345.095 91.768C345.551 91.048 345.779 90.124 345.779 88.996C345.779 88.012 345.539 87.16 345.059 86.44C344.603 85.696 343.955 85.012 343.115 84.388C342.275 83.74 341.291 83.08 340.163 82.408C339.035 81.712 337.979 81.004 336.995 80.284C336.011 79.564 335.219 78.736 334.619 77.8C334.043 76.84 333.755 75.688 333.755 74.344C333.755 72.928 334.067 71.764 334.691 70.852C335.339 69.916 336.179 69.232 337.211 68.8C338.243 68.344 339.347 68.116 340.523 68.116ZM347.975 60.664L348.155 61.168C346.595 61.696 345.215 62.392 344.015 63.256C342.839 64.12 341.975 65.008 341.423 65.92H340.775C340.223 65.008 339.347 64.12 338.147 63.256C336.971 62.392 335.603 61.696 334.043 61.168L334.223 60.664C335.663 60.976 337.079 61.36 338.471 61.816C339.887 62.272 341.003 62.728 341.819 63.184C342.515 62.728 343.427 62.272 344.555 61.816C345.683 61.36 346.823 60.976 347.975 60.664ZM372.06 68.512C371.964 69.424 371.892 70.312 371.844 71.176C371.82 72.016 371.808 72.664 371.808 73.12C371.808 73.696 371.82 74.236 371.844 74.74C371.868 75.244 371.892 75.688 371.916 76.072H371.088C370.92 74.392 370.692 73.072 370.404 72.112C370.116 71.128 369.612 70.42 368.892 69.988C368.172 69.556 367.056 69.34 365.544 69.34H363.6V89.824C363.6 90.784 363.684 91.504 363.852 91.984C364.044 92.464 364.404 92.788 364.932 92.956C365.46 93.124 366.228 93.232 367.236 93.28V94C366.612 93.952 365.82 93.928 364.86 93.928C363.9 93.904 362.928 93.892 361.944 93.892C360.864 93.892 359.844 93.904 358.884 93.928C357.948 93.928 357.192 93.952 356.616 94V93.28C357.624 93.232 358.392 93.124 358.92 92.956C359.448 92.788 359.796 92.464 359.964 91.984C360.156 91.504 360.252 90.784 360.252 89.824V69.34H358.308C356.82 69.34 355.704 69.556 354.96 69.988C354.24 70.42 353.736 71.128 353.448 72.112C353.16 73.072 352.932 74.392 352.764 76.072H351.936C351.984 75.688 352.008 75.244 352.008 74.74C352.032 74.236 352.044 73.696 352.044 73.12C352.044 72.664 352.02 72.016 351.972 71.176C351.948 70.312 351.888 69.424 351.792 68.512C352.8 68.536 353.892 68.56 355.068 68.584C356.268 68.608 357.468 68.62 358.668 68.62C359.868 68.62 360.96 68.62 361.944 68.62C362.928 68.62 364.008 68.62 365.184 68.62C366.384 68.62 367.584 68.608 368.784 68.584C369.984 68.56 371.076 68.536 372.06 68.512ZM386.463 68.008C388.743 68.008 390.735 68.524 392.439 69.556C394.167 70.588 395.499 72.076 396.435 74.02C397.395 75.94 397.875 78.28 397.875 81.04C397.875 83.728 397.383 86.08 396.399 88.096C395.439 90.112 394.095 91.684 392.367 92.812C390.639 93.94 388.659 94.504 386.427 94.504C384.147 94.504 382.143 93.988 380.415 92.956C378.711 91.924 377.379 90.436 376.419 88.492C375.483 86.548 375.015 84.208 375.015 81.472C375.015 78.784 375.507 76.432 376.491 74.416C377.475 72.4 378.819 70.828 380.523 69.7C382.251 68.572 384.231 68.008 386.463 68.008ZM386.319 68.656C384.759 68.656 383.403 69.196 382.251 70.276C381.099 71.356 380.199 72.844 379.551 74.74C378.927 76.636 378.615 78.832 378.615 81.328C378.615 83.872 378.963 86.092 379.659 87.988C380.379 89.86 381.339 91.312 382.539 92.344C383.763 93.352 385.107 93.856 386.571 93.856C388.131 93.856 389.487 93.316 390.639 92.236C391.791 91.156 392.679 89.668 393.303 87.772C393.951 85.852 394.275 83.656 394.275 81.184C394.275 78.616 393.915 76.396 393.195 74.524C392.499 72.652 391.551 71.212 390.351 70.204C389.151 69.172 387.807 68.656 386.319 68.656ZM417.972 68.116C419.172 68.116 420.084 68.26 420.708 68.548C421.332 68.812 421.884 69.112 422.364 69.448C422.652 69.616 422.88 69.748 423.048 69.844C423.24 69.916 423.42 69.952 423.588 69.952C423.828 69.952 423.996 69.82 424.092 69.556C424.212 69.292 424.308 68.896 424.38 68.368H425.208C425.184 68.776 425.148 69.268 425.1 69.844C425.076 70.396 425.052 71.14 425.028 72.076C425.028 72.988 425.028 74.2 425.028 75.712H424.2C424.128 74.56 423.876 73.456 423.444 72.4C423.012 71.344 422.376 70.48 421.536 69.808C420.72 69.136 419.64 68.8 418.296 68.8C417.024 68.8 415.968 69.184 415.128 69.952C414.312 70.72 413.904 71.728 413.904 72.976C413.904 74.056 414.18 74.968 414.732 75.712C415.284 76.432 416.016 77.092 416.928 77.692C417.864 78.268 418.872 78.892 419.952 79.564C421.2 80.332 422.304 81.1 423.264 81.868C424.248 82.612 425.016 83.44 425.568 84.352C426.144 85.264 426.432 86.368 426.432 87.664C426.432 89.2 426.084 90.472 425.388 91.48C424.692 92.488 423.768 93.244 422.616 93.748C421.464 94.252 420.192 94.504 418.8 94.504C417.528 94.504 416.52 94.36 415.776 94.072C415.032 93.784 414.396 93.484 413.868 93.172C413.34 92.836 412.932 92.668 412.644 92.668C412.404 92.668 412.224 92.8 412.104 93.064C412.008 93.328 411.924 93.724 411.852 94.252H411.024C411.072 93.748 411.096 93.16 411.096 92.488C411.12 91.792 411.132 90.892 411.132 89.788C411.156 88.684 411.168 87.292 411.168 85.612H411.996C412.092 87.052 412.356 88.396 412.788 89.644C413.244 90.892 413.928 91.9 414.84 92.668C415.776 93.412 417.012 93.784 418.548 93.784C419.34 93.784 420.084 93.628 420.78 93.316C421.5 92.98 422.088 92.464 422.544 91.768C423 91.048 423.228 90.124 423.228 88.996C423.228 88.012 422.988 87.16 422.508 86.44C422.052 85.696 421.404 85.012 420.564 84.388C419.724 83.74 418.74 83.08 417.612 82.408C416.484 81.712 415.428 81.004 414.444 80.284C413.46 79.564 412.668 78.736 412.068 77.8C411.492 76.84 411.204 75.688 411.204 74.344C411.204 72.928 411.516 71.764 412.14 70.852C412.788 69.916 413.628 69.232 414.66 68.8C415.692 68.344 416.796 68.116 417.972 68.116ZM449.509 68.512C449.413 69.424 449.341 70.312 449.293 71.176C449.269 72.016 449.257 72.664 449.257 73.12C449.257 73.696 449.269 74.236 449.293 74.74C449.317 75.244 449.341 75.688 449.365 76.072H448.537C448.369 74.392 448.141 73.072 447.853 72.112C447.565 71.128 447.061 70.42 446.341 69.988C445.621 69.556 444.505 69.34 442.993 69.34H441.049V89.824C441.049 90.784 441.133 91.504 441.301 91.984C441.493 92.464 441.853 92.788 442.381 92.956C442.909 93.124 443.677 93.232 444.685 93.28V94C444.061 93.952 443.269 93.928 442.309 93.928C441.349 93.904 440.377 93.892 439.393 93.892C438.313 93.892 437.293 93.904 436.333 93.928C435.397 93.928 434.641 93.952 434.065 94V93.28C435.073 93.232 435.841 93.124 436.369 92.956C436.897 92.788 437.245 92.464 437.413 91.984C437.605 91.504 437.701 90.784 437.701 89.824V69.34H435.757C434.269 69.34 433.153 69.556 432.409 69.988C431.689 70.42 431.185 71.128 430.897 72.112C430.609 73.072 430.381 74.392 430.213 76.072H429.385C429.433 75.688 429.457 75.244 429.457 74.74C429.481 74.236 429.493 73.696 429.493 73.12C429.493 72.664 429.469 72.016 429.421 71.176C429.397 70.312 429.337 69.424 429.241 68.512C430.249 68.536 431.341 68.56 432.517 68.584C433.717 68.608 434.917 68.62 436.117 68.62C437.317 68.62 438.409 68.62 439.393 68.62C440.377 68.62 441.457 68.62 442.633 68.62C443.833 68.62 445.033 68.608 446.233 68.584C447.433 68.56 448.525 68.536 449.509 68.512ZM470.033 68.512C469.937 69.352 469.865 70.168 469.817 70.96C469.793 71.752 469.781 72.352 469.781 72.76C469.781 73.192 469.793 73.612 469.817 74.02C469.841 74.404 469.865 74.728 469.889 74.992H469.061C468.917 73.576 468.713 72.46 468.449 71.644C468.185 70.804 467.729 70.216 467.081 69.88C466.457 69.52 465.509 69.34 464.237 69.34H461.249C460.433 69.34 459.809 69.412 459.377 69.556C458.969 69.676 458.693 69.952 458.549 70.384C458.405 70.792 458.333 71.44 458.333 72.328V90.184C458.333 91.048 458.405 91.696 458.549 92.128C458.693 92.56 458.969 92.848 459.377 92.992C459.809 93.112 460.433 93.172 461.249 93.172H463.877C465.389 93.172 466.529 92.968 467.297 92.56C468.089 92.152 468.653 91.492 468.989 90.58C469.349 89.644 469.613 88.384 469.781 86.8H470.609C470.537 87.448 470.501 88.312 470.501 89.392C470.501 89.848 470.513 90.508 470.537 91.372C470.585 92.212 470.657 93.088 470.753 94C469.529 93.952 468.149 93.928 466.613 93.928C465.077 93.904 463.709 93.892 462.509 93.892C461.981 93.892 461.297 93.892 460.457 93.892C459.641 93.892 458.753 93.904 457.793 93.928C456.833 93.928 455.861 93.94 454.877 93.964C453.893 93.964 452.957 93.976 452.069 94V93.28C452.885 93.232 453.497 93.136 453.905 92.992C454.337 92.848 454.625 92.56 454.769 92.128C454.913 91.696 454.985 91.048 454.985 90.184V72.328C454.985 71.44 454.913 70.792 454.769 70.384C454.625 69.952 454.337 69.664 453.905 69.52C453.497 69.352 452.885 69.256 452.069 69.232V68.512C452.957 68.536 453.893 68.56 454.877 68.584C455.861 68.584 456.833 68.596 457.793 68.62C458.753 68.62 459.641 68.62 460.457 68.62C461.297 68.62 461.981 68.62 462.509 68.62C463.613 68.62 464.861 68.62 466.253 68.62C467.669 68.596 468.929 68.56 470.033 68.512ZM463.841 80.824C463.841 80.824 463.841 80.944 463.841 81.184C463.841 81.424 463.841 81.544 463.841 81.544H457.253C457.253 81.544 457.253 81.424 457.253 81.184C457.253 80.944 457.253 80.824 457.253 80.824H463.841ZM464.885 76.072C464.789 77.44 464.741 78.484 464.741 79.204C464.765 79.924 464.777 80.584 464.777 81.184C464.777 81.784 464.789 82.444 464.813 83.164C464.837 83.884 464.897 84.928 464.993 86.296H464.165C464.069 85.528 463.949 84.784 463.805 84.064C463.685 83.32 463.397 82.72 462.941 82.264C462.509 81.784 461.765 81.544 460.709 81.544V80.824C461.501 80.824 462.101 80.668 462.509 80.356C462.941 80.02 463.253 79.6 463.445 79.096C463.637 78.592 463.769 78.076 463.841 77.548C463.913 76.996 463.985 76.504 464.057 76.072H464.885ZM207.77 116.512V117.232C206.954 117.256 206.33 117.376 205.898 117.592C205.49 117.808 205.214 118.156 205.07 118.636C204.926 119.116 204.854 119.8 204.854 120.688V142.18C204.71 142.18 204.566 142.18 204.422 142.18C204.302 142.18 204.17 142.18 204.026 142.18L188.906 118.816V137.824C188.906 138.688 188.978 139.372 189.122 139.876C189.29 140.356 189.602 140.704 190.058 140.92C190.538 141.112 191.246 141.232 192.182 141.28V142C191.75 141.952 191.186 141.928 190.49 141.928C189.794 141.904 189.134 141.892 188.51 141.892C187.91 141.892 187.298 141.904 186.674 141.928C186.074 141.928 185.57 141.952 185.162 142V141.28C185.978 141.232 186.59 141.112 186.998 140.92C187.43 140.704 187.718 140.356 187.862 139.876C188.006 139.372 188.078 138.688 188.078 137.824V120.328C188.078 119.44 188.006 118.792 187.862 118.384C187.718 117.952 187.43 117.664 186.998 117.52C186.59 117.352 185.978 117.256 185.162 117.232V116.512C185.57 116.536 186.074 116.56 186.674 116.584C187.298 116.608 187.91 116.62 188.51 116.62C189.038 116.62 189.542 116.608 190.022 116.584C190.502 116.56 190.934 116.536 191.318 116.512L204.026 136.096V120.688C204.026 119.8 203.942 119.116 203.774 118.636C203.63 118.156 203.318 117.808 202.838 117.592C202.382 117.376 201.686 117.256 200.75 117.232V116.512C201.182 116.536 201.746 116.56 202.442 116.584C203.162 116.608 203.822 116.62 204.422 116.62C205.046 116.62 205.658 116.608 206.258 116.584C206.882 116.56 207.386 116.536 207.77 116.512ZM220.485 116.332L229.269 138.976C229.629 139.888 230.037 140.5 230.493 140.812C230.949 141.1 231.369 141.256 231.753 141.28V142C231.273 141.952 230.685 141.928 229.989 141.928C229.293 141.904 228.597 141.892 227.901 141.892C226.965 141.892 226.089 141.904 225.273 141.928C224.457 141.928 223.797 141.952 223.293 142V141.28C224.517 141.232 225.297 141.028 225.633 140.668C225.969 140.284 225.897 139.48 225.417 138.256L218.721 120.364L219.297 119.896L213.033 136.168C212.649 137.128 212.421 137.944 212.349 138.616C212.277 139.264 212.337 139.78 212.529 140.164C212.745 140.548 213.093 140.824 213.573 140.992C214.077 141.16 214.701 141.256 215.445 141.28V142C214.773 141.952 214.065 141.928 213.321 141.928C212.601 141.904 211.929 141.892 211.305 141.892C210.705 141.892 210.189 141.904 209.757 141.928C209.349 141.928 208.965 141.952 208.605 142V141.28C209.085 141.16 209.577 140.884 210.081 140.452C210.585 139.996 211.041 139.228 211.449 138.148L219.909 116.332C220.005 116.332 220.101 116.332 220.197 116.332C220.293 116.332 220.389 116.332 220.485 116.332ZM224.877 131.632V132.352H214.149L214.509 131.632H224.877ZM240.749 116.116C241.949 116.116 242.861 116.26 243.485 116.548C244.109 116.812 244.661 117.112 245.141 117.448C245.429 117.616 245.657 117.748 245.825 117.844C246.017 117.916 246.197 117.952 246.365 117.952C246.605 117.952 246.773 117.82 246.869 117.556C246.989 117.292 247.085 116.896 247.157 116.368H247.985C247.961 116.776 247.925 117.268 247.877 117.844C247.853 118.396 247.829 119.14 247.805 120.076C247.805 120.988 247.805 122.2 247.805 123.712H246.977C246.905 122.56 246.653 121.456 246.221 120.4C245.789 119.344 245.153 118.48 244.313 117.808C243.497 117.136 242.417 116.8 241.073 116.8C239.801 116.8 238.745 117.184 237.905 117.952C237.089 118.72 236.681 119.728 236.681 120.976C236.681 122.056 236.957 122.968 237.509 123.712C238.061 124.432 238.793 125.092 239.705 125.692C240.641 126.268 241.649 126.892 242.729 127.564C243.977 128.332 245.081 129.1 246.041 129.868C247.025 130.612 247.793 131.44 248.345 132.352C248.921 133.264 249.209 134.368 249.209 135.664C249.209 137.2 248.861 138.472 248.165 139.48C247.469 140.488 246.545 141.244 245.393 141.748C244.241 142.252 242.969 142.504 241.577 142.504C240.305 142.504 239.297 142.36 238.553 142.072C237.809 141.784 237.173 141.484 236.645 141.172C236.117 140.836 235.709 140.668 235.421 140.668C235.181 140.668 235.001 140.8 234.881 141.064C234.785 141.328 234.701 141.724 234.629 142.252H233.801C233.849 141.748 233.873 141.16 233.873 140.488C233.897 139.792 233.909 138.892 233.909 137.788C233.933 136.684 233.945 135.292 233.945 133.612H234.773C234.869 135.052 235.133 136.396 235.565 137.644C236.021 138.892 236.705 139.9 237.617 140.668C238.553 141.412 239.789 141.784 241.325 141.784C242.117 141.784 242.861 141.628 243.557 141.316C244.277 140.98 244.865 140.464 245.321 139.768C245.777 139.048 246.005 138.124 246.005 136.996C246.005 136.012 245.765 135.16 245.285 134.44C244.829 133.696 244.181 133.012 243.341 132.388C242.501 131.74 241.517 131.08 240.389 130.408C239.261 129.712 238.205 129.004 237.221 128.284C236.237 127.564 235.445 126.736 234.845 125.8C234.269 124.84 233.981 123.688 233.981 122.344C233.981 120.928 234.293 119.764 234.917 118.852C235.565 117.916 236.405 117.232 237.437 116.8C238.469 116.344 239.573 116.116 240.749 116.116ZM270.631 116.512V117.232C269.815 117.256 269.191 117.352 268.759 117.52C268.351 117.664 268.075 117.952 267.931 118.384C267.787 118.792 267.715 119.44 267.715 120.328V138.184C267.715 139.048 267.787 139.696 267.931 140.128C268.075 140.56 268.351 140.848 268.759 140.992C269.191 141.136 269.815 141.232 270.631 141.28V142C270.079 141.952 269.383 141.928 268.543 141.928C267.727 141.904 266.899 141.892 266.059 141.892C265.123 141.892 264.247 141.904 263.431 141.928C262.615 141.928 261.955 141.952 261.451 142V141.28C262.267 141.232 262.879 141.136 263.287 140.992C263.719 140.848 264.007 140.56 264.151 140.128C264.295 139.696 264.367 139.048 264.367 138.184V120.328C264.367 119.44 264.295 118.792 264.151 118.384C264.007 117.952 263.719 117.664 263.287 117.52C262.879 117.352 262.267 117.256 261.451 117.232V116.512C261.955 116.536 262.615 116.56 263.431 116.584C264.247 116.608 265.123 116.62 266.059 116.62C266.899 116.62 267.727 116.608 268.543 116.584C269.383 116.56 270.079 116.536 270.631 116.512ZM291.939 116.512V117.232L277.575 141.172H284.631C285.759 141.172 286.671 141.052 287.367 140.812C288.087 140.572 288.651 140.2 289.059 139.696C289.491 139.168 289.815 138.472 290.031 137.608C290.247 136.744 290.415 135.688 290.535 134.44H291.363C291.291 135.184 291.255 136.168 291.255 137.392C291.255 137.848 291.267 138.508 291.291 139.372C291.339 140.212 291.411 141.088 291.507 142C290.619 141.952 289.647 141.928 288.591 141.928C287.535 141.904 286.479 141.892 285.423 141.892C284.391 141.892 283.431 141.892 282.543 141.892C281.127 141.892 279.627 141.904 278.043 141.928C276.483 141.928 275.019 141.952 273.651 142V141.28L288.123 117.34H281.103C279.975 117.34 279.051 117.46 278.331 117.7C277.635 117.94 277.071 118.324 276.639 118.852C276.231 119.356 275.919 120.04 275.703 120.904C275.487 121.768 275.319 122.824 275.199 124.072H274.371C274.419 123.688 274.443 123.244 274.443 122.74C274.467 122.236 274.479 121.696 274.479 121.12C274.479 120.664 274.455 120.016 274.407 119.176C274.383 118.312 274.323 117.424 274.227 116.512C275.115 116.536 276.087 116.56 277.143 116.584C278.199 116.608 279.255 116.62 280.311 116.62C281.367 116.62 282.327 116.62 283.191 116.62C284.559 116.62 286.023 116.62 287.583 116.62C289.167 116.596 290.619 116.56 291.939 116.512ZM305.142 116.332L313.926 138.976C314.286 139.888 314.694 140.5 315.15 140.812C315.606 141.1 316.026 141.256 316.41 141.28V142C315.93 141.952 315.342 141.928 314.646 141.928C313.95 141.904 313.254 141.892 312.558 141.892C311.622 141.892 310.746 141.904 309.93 141.928C309.114 141.928 308.454 141.952 307.95 142V141.28C309.174 141.232 309.954 141.028 310.29 140.668C310.626 140.284 310.554 139.48 310.074 138.256L303.378 120.364L303.954 119.896L297.69 136.168C297.306 137.128 297.078 137.944 297.006 138.616C296.934 139.264 296.994 139.78 297.186 140.164C297.402 140.548 297.75 140.824 298.23 140.992C298.734 141.16 299.358 141.256 300.102 141.28V142C299.43 141.952 298.722 141.928 297.978 141.928C297.258 141.904 296.586 141.892 295.962 141.892C295.362 141.892 294.846 141.904 294.414 141.928C294.006 141.928 293.622 141.952 293.262 142V141.28C293.742 141.16 294.234 140.884 294.738 140.452C295.242 139.996 295.698 139.228 296.106 138.148L304.566 116.332C304.662 116.332 304.758 116.332 304.854 116.332C304.95 116.332 305.046 116.332 305.142 116.332ZM309.534 131.632V132.352H298.806L299.166 131.632H309.534ZM316.998 116.512C317.502 116.536 318.162 116.56 318.978 116.584C319.794 116.608 320.598 116.62 321.39 116.62C322.518 116.62 323.598 116.608 324.63 116.584C325.662 116.56 326.394 116.548 326.826 116.548C329.346 116.548 331.242 117.076 332.514 118.132C333.786 119.188 334.422 120.544 334.422 122.2C334.422 123.04 334.242 123.868 333.882 124.684C333.546 125.476 332.97 126.208 332.154 126.88C331.362 127.528 330.294 128.056 328.95 128.464V128.536C330.846 128.776 332.322 129.232 333.378 129.904C334.458 130.552 335.214 131.32 335.646 132.208C336.078 133.096 336.294 134.032 336.294 135.016C336.294 136.384 335.946 137.596 335.25 138.652C334.578 139.684 333.594 140.5 332.298 141.1C331.002 141.7 329.454 142 327.654 142C327.126 142 326.334 141.988 325.278 141.964C324.222 141.916 322.95 141.892 321.462 141.892C320.622 141.892 319.794 141.904 318.978 141.928C318.162 141.928 317.502 141.952 316.998 142V141.28C317.814 141.232 318.426 141.136 318.834 140.992C319.266 140.848 319.554 140.56 319.698 140.128C319.842 139.696 319.914 139.048 319.914 138.184V120.328C319.914 119.44 319.842 118.792 319.698 118.384C319.554 117.952 319.266 117.664 318.834 117.52C318.426 117.352 317.814 117.256 316.998 117.232V116.512ZM325.926 117.232C324.822 117.232 324.102 117.436 323.766 117.844C323.43 118.252 323.262 119.08 323.262 120.328V138.184C323.262 139.024 323.334 139.66 323.478 140.092C323.622 140.524 323.886 140.812 324.27 140.956C324.654 141.1 325.218 141.172 325.962 141.172C328.314 141.172 330.018 140.632 331.074 139.552C332.154 138.448 332.694 136.888 332.694 134.872C332.694 133.024 332.19 131.596 331.182 130.588C330.198 129.58 328.566 129.076 326.286 129.076H322.578C322.578 129.076 322.578 128.98 322.578 128.788C322.578 128.572 322.578 128.464 322.578 128.464H325.674C327.09 128.464 328.182 128.2 328.95 127.672C329.718 127.12 330.246 126.4 330.534 125.512C330.822 124.6 330.966 123.628 330.966 122.596C330.966 120.82 330.57 119.488 329.778 118.6C329.01 117.688 327.726 117.232 325.926 117.232ZM339.182 116.512C339.686 116.536 340.346 116.56 341.162 116.584C341.978 116.608 342.782 116.62 343.574 116.62C344.702 116.62 345.782 116.608 346.814 116.584C347.846 116.56 348.578 116.548 349.01 116.548C350.954 116.548 352.562 116.824 353.834 117.376C355.13 117.928 356.09 118.684 356.714 119.644C357.362 120.58 357.686 121.636 357.686 122.812C357.686 123.532 357.542 124.3 357.254 125.116C356.966 125.932 356.462 126.7 355.742 127.42C355.046 128.14 354.086 128.74 352.862 129.22C351.638 129.676 350.09 129.904 348.218 129.904H344.762V129.184H347.858C349.562 129.184 350.858 128.92 351.746 128.392C352.658 127.84 353.27 127.12 353.582 126.232C353.918 125.32 354.086 124.312 354.086 123.208C354.086 121.312 353.63 119.848 352.718 118.816C351.83 117.76 350.294 117.232 348.11 117.232C347.006 117.232 346.286 117.436 345.95 117.844C345.614 118.252 345.446 119.08 345.446 120.328V138.184C345.446 139.048 345.518 139.696 345.662 140.128C345.806 140.56 346.082 140.848 346.49 140.992C346.922 141.136 347.546 141.232 348.362 141.28V142C347.81 141.952 347.114 141.928 346.274 141.928C345.458 141.904 344.63 141.892 343.79 141.892C342.854 141.892 341.978 141.904 341.162 141.928C340.346 141.928 339.686 141.952 339.182 142V141.28C339.998 141.232 340.61 141.136 341.018 140.992C341.45 140.848 341.738 140.56 341.882 140.128C342.026 139.696 342.098 139.048 342.098 138.184V120.328C342.098 119.44 342.026 118.792 341.882 118.384C341.738 117.952 341.45 117.664 341.018 117.52C340.61 117.352 339.998 117.256 339.182 117.232V116.512ZM344.906 129.292C346.202 129.34 347.222 129.4 347.966 129.472C348.71 129.52 349.31 129.568 349.766 129.616C350.246 129.664 350.702 129.724 351.134 129.796C352.742 130.06 353.894 130.552 354.59 131.272C355.31 131.968 355.838 133.06 356.174 134.548L357.074 138.22C357.314 139.276 357.554 140.044 357.794 140.524C358.058 140.98 358.454 141.196 358.982 141.172C359.39 141.148 359.726 141.016 359.99 140.776C360.278 140.536 360.578 140.212 360.89 139.804L361.43 140.2C360.926 140.944 360.398 141.52 359.846 141.928C359.318 142.312 358.562 142.504 357.578 142.504C356.69 142.504 355.91 142.24 355.238 141.712C354.566 141.184 354.062 140.152 353.726 138.616L352.934 135.016C352.718 133.984 352.466 133.096 352.178 132.352C351.914 131.584 351.53 130.984 351.026 130.552C350.546 130.12 349.826 129.904 348.866 129.904H344.978L344.906 129.292ZM372.642 116.332L381.426 138.976C381.786 139.888 382.194 140.5 382.65 140.812C383.106 141.1 383.526 141.256 383.91 141.28V142C383.43 141.952 382.842 141.928 382.146 141.928C381.45 141.904 380.754 141.892 380.058 141.892C379.122 141.892 378.246 141.904 377.43 141.928C376.614 141.928 375.954 141.952 375.45 142V141.28C376.674 141.232 377.454 141.028 377.79 140.668C378.126 140.284 378.054 139.48 377.574 138.256L370.878 120.364L371.454 119.896L365.19 136.168C364.806 137.128 364.578 137.944 364.506 138.616C364.434 139.264 364.494 139.78 364.686 140.164C364.902 140.548 365.25 140.824 365.73 140.992C366.234 141.16 366.858 141.256 367.602 141.28V142C366.93 141.952 366.222 141.928 365.478 141.928C364.758 141.904 364.086 141.892 363.462 141.892C362.862 141.892 362.346 141.904 361.914 141.928C361.506 141.928 361.122 141.952 360.762 142V141.28C361.242 141.16 361.734 140.884 362.238 140.452C362.742 139.996 363.198 139.228 363.606 138.148L372.066 116.332C372.162 116.332 372.258 116.332 372.354 116.332C372.45 116.332 372.546 116.332 372.642 116.332ZM377.034 131.632V132.352H366.306L366.666 131.632H377.034ZM393.678 116.512V117.232C392.862 117.256 392.238 117.352 391.806 117.52C391.398 117.664 391.122 117.952 390.978 118.384C390.834 118.792 390.762 119.44 390.762 120.328V138.184C390.762 139.048 390.834 139.696 390.978 140.128C391.122 140.56 391.398 140.848 391.806 140.992C392.238 141.112 392.862 141.172 393.678 141.172H396.306C397.434 141.172 398.346 141.052 399.042 140.812C399.762 140.572 400.326 140.2 400.734 139.696C401.166 139.168 401.49 138.472 401.706 137.608C401.922 136.744 402.09 135.688 402.21 134.44H403.038C402.966 135.184 402.93 136.168 402.93 137.392C402.93 137.848 402.942 138.508 402.966 139.372C403.014 140.212 403.086 141.088 403.182 142C401.958 141.952 400.578 141.928 399.042 141.928C397.506 141.904 396.138 141.892 394.938 141.892C394.41 141.892 393.726 141.892 392.886 141.892C392.07 141.892 391.182 141.904 390.222 141.928C389.262 141.928 388.29 141.94 387.306 141.964C386.322 141.964 385.386 141.976 384.498 142V141.28C385.314 141.232 385.926 141.136 386.334 140.992C386.766 140.848 387.054 140.56 387.198 140.128C387.342 139.696 387.414 139.048 387.414 138.184V120.328C387.414 119.44 387.342 118.792 387.198 118.384C387.054 117.952 386.766 117.664 386.334 117.52C385.926 117.352 385.314 117.256 384.498 117.232V116.512C385.002 116.536 385.662 116.56 386.478 116.584C387.294 116.608 388.17 116.62 389.106 116.62C389.946 116.62 390.774 116.608 391.59 116.584C392.43 116.56 393.126 116.536 393.678 116.512ZM414.842 116.512V117.232C414.026 117.256 413.402 117.352 412.97 117.52C412.562 117.664 412.286 117.952 412.142 118.384C411.998 118.792 411.926 119.44 411.926 120.328V138.184C411.926 139.048 411.998 139.696 412.142 140.128C412.286 140.56 412.562 140.848 412.97 140.992C413.402 141.136 414.026 141.232 414.842 141.28V142C414.29 141.952 413.594 141.928 412.754 141.928C411.938 141.904 411.11 141.892 410.27 141.892C409.334 141.892 408.458 141.904 407.642 141.928C406.826 141.928 406.166 141.952 405.662 142V141.28C406.478 141.232 407.09 141.136 407.498 140.992C407.93 140.848 408.218 140.56 408.362 140.128C408.506 139.696 408.578 139.048 408.578 138.184V120.328C408.578 119.44 408.506 118.792 408.362 118.384C408.218 117.952 407.93 117.664 407.498 117.52C407.09 117.352 406.478 117.256 405.662 117.232V116.512C406.166 116.536 406.826 116.56 407.642 116.584C408.458 116.608 409.334 116.62 410.27 116.62C411.11 116.62 411.938 116.608 412.754 116.584C413.594 116.56 414.29 116.536 414.842 116.512Z" fill="black"/>
<path d="M210.795 178.168C209.993 178.168 209.279 178 208.653 177.664C208.028 177.319 207.599 176.889 207.365 176.376L208.247 175.746C208.835 176.689 209.689 177.16 210.809 177.16C211.388 177.16 211.864 177.011 212.237 176.712C212.62 176.413 212.811 176.017 212.811 175.522C212.811 174.691 212.331 174.089 211.369 173.716L209.899 173.156C209.125 172.867 208.565 172.512 208.219 172.092C207.874 171.672 207.701 171.121 207.701 170.44C207.701 169.675 207.986 169.059 208.555 168.592C209.134 168.125 209.862 167.892 210.739 167.892C211.346 167.892 211.892 168.018 212.377 168.27C212.872 168.522 213.264 168.849 213.553 169.25L212.727 169.922C212.158 169.241 211.481 168.9 210.697 168.9C210.147 168.9 209.685 169.045 209.311 169.334C208.947 169.614 208.765 169.978 208.765 170.426C208.765 170.865 208.877 171.21 209.101 171.462C209.335 171.705 209.717 171.929 210.249 172.134L211.565 172.638C212.34 172.937 212.919 173.31 213.301 173.758C213.684 174.206 213.875 174.785 213.875 175.494C213.875 176.315 213.591 176.969 213.021 177.454C212.452 177.93 211.71 178.168 210.795 178.168ZM224.725 168.942C225.35 169.53 225.663 170.272 225.663 171.168C225.663 172.064 225.35 172.806 224.725 173.394C224.109 173.973 223.292 174.262 222.275 174.262H220.385V178H219.321V168.06H222.275C223.292 168.06 224.109 168.354 224.725 168.942ZM223.969 172.68C224.379 172.288 224.585 171.784 224.585 171.168C224.585 170.552 224.379 170.048 223.969 169.656C223.567 169.255 223.003 169.054 222.275 169.054H220.385V173.268H222.275C223.003 173.268 223.567 173.072 223.969 172.68ZM229.022 175.97C229.806 176.763 230.772 177.16 231.92 177.16C233.068 177.16 234.03 176.763 234.804 175.97C235.588 175.177 235.98 174.197 235.98 173.03C235.98 171.873 235.588 170.897 234.804 170.104C234.03 169.301 233.068 168.9 231.92 168.9C230.772 168.9 229.806 169.301 229.022 170.104C228.248 170.897 227.86 171.873 227.86 173.03C227.86 174.197 228.248 175.177 229.022 175.97ZM235.56 176.684C234.571 177.673 233.358 178.168 231.92 178.168C230.483 178.168 229.265 177.673 228.266 176.684C227.277 175.695 226.782 174.477 226.782 173.03C226.782 171.583 227.277 170.365 228.266 169.376C229.265 168.387 230.483 167.892 231.92 167.892C233.358 167.892 234.571 168.387 235.56 169.376C236.559 170.365 237.058 171.583 237.058 173.03C237.058 174.477 236.559 175.695 235.56 176.684ZM241.707 178.168C240.905 178.168 240.191 178 239.565 177.664C238.94 177.319 238.511 176.889 238.277 176.376L239.159 175.746C239.747 176.689 240.601 177.16 241.721 177.16C242.3 177.16 242.776 177.011 243.149 176.712C243.532 176.413 243.723 176.017 243.723 175.522C243.723 174.691 243.243 174.089 242.281 173.716L240.811 173.156C240.037 172.867 239.477 172.512 239.131 172.092C238.786 171.672 238.613 171.121 238.613 170.44C238.613 169.675 238.898 169.059 239.467 168.592C240.046 168.125 240.774 167.892 241.651 167.892C242.258 167.892 242.804 168.018 243.289 168.27C243.784 168.522 244.176 168.849 244.465 169.25L243.639 169.922C243.07 169.241 242.393 168.9 241.609 168.9C241.059 168.9 240.597 169.045 240.223 169.334C239.859 169.614 239.677 169.978 239.677 170.426C239.677 170.865 239.789 171.21 240.013 171.462C240.247 171.705 240.629 171.929 241.161 172.134L242.477 172.638C243.252 172.937 243.831 173.31 244.213 173.758C244.596 174.206 244.787 174.785 244.787 175.494C244.787 176.315 244.503 176.969 243.933 177.454C243.364 177.93 242.622 178.168 241.707 178.168ZM241.091 167.248L239.271 165.33H240.433L241.651 166.618L242.897 165.33H244.059L242.239 167.248H241.091ZM248.75 178V169.068H245.53V168.06H253.02V169.068H249.8V178H248.75ZM255.628 175.97C256.412 176.763 257.378 177.16 258.526 177.16C259.674 177.16 260.635 176.763 261.41 175.97C262.194 175.177 262.586 174.197 262.586 173.03C262.586 171.873 262.194 170.897 261.41 170.104C260.635 169.301 259.674 168.9 258.526 168.9C257.378 168.9 256.412 169.301 255.628 170.104C254.853 170.897 254.466 171.873 254.466 173.03C254.466 174.197 254.853 175.177 255.628 175.97ZM262.166 176.684C261.176 177.673 259.963 178.168 258.526 178.168C257.088 178.168 255.87 177.673 254.872 176.684C253.882 175.695 253.388 174.477 253.388 173.03C253.388 171.583 253.882 170.365 254.872 169.376C255.87 168.387 257.088 167.892 258.526 167.892C259.963 167.892 261.176 168.387 262.166 169.376C263.164 170.365 263.664 171.583 263.664 173.03C263.664 174.477 263.164 175.695 262.166 176.684ZM268.515 178L264.231 168.06H265.421L268.949 176.264L272.477 168.06H273.653L269.383 178H268.515ZM273.144 178L277.568 168.06H278.422L282.86 178H281.74L280.354 174.906H275.608L274.236 178H273.144ZM277.974 169.558L276.042 173.912H279.92L277.974 169.558ZM292.702 178H291.764L285.422 169.866V178H284.358V168.06H285.296L291.638 176.194V168.06H292.702V178ZM296.719 178.168C295.664 178.168 294.824 177.79 294.199 177.034L294.955 176.306C295.468 176.885 296.056 177.174 296.719 177.174C297.774 177.174 298.301 176.535 298.301 175.256V168.06H299.365V175.284C299.365 176.236 299.127 176.955 298.651 177.44C298.175 177.925 297.531 178.168 296.719 178.168ZM302.035 178V168.06H307.705V169.068H303.099V172.386H306.865V173.394H303.099V176.992H307.705V178H302.035ZM309.787 178V168.06H310.767L314.603 174.066L318.439 168.06H319.419V178H318.355V170.16L315.009 175.396H314.211L310.851 170.132V178H309.787ZM321.824 180.1L322.482 178H321.768V176.46H323.308V178.014L322.482 180.1H321.824ZM331.693 178L327.409 168.06H328.599L332.127 176.264L335.655 168.06H336.831L332.561 178H331.693ZM338.375 178V168.06H344.045V169.068H339.439V172.386H343.205V173.394H339.439V176.992H344.045V178H338.375ZM348.717 178.168C347.915 178.168 347.201 178 346.575 177.664C345.95 177.319 345.521 176.889 345.287 176.376L346.169 175.746C346.757 176.689 347.611 177.16 348.731 177.16C349.31 177.16 349.786 177.011 350.159 176.712C350.542 176.413 350.733 176.017 350.733 175.522C350.733 174.691 350.253 174.089 349.291 173.716L347.821 173.156C347.047 172.867 346.487 172.512 346.141 172.092C345.796 171.672 345.623 171.121 345.623 170.44C345.623 169.675 345.908 169.059 346.477 168.592C347.056 168.125 347.784 167.892 348.661 167.892C349.268 167.892 349.814 168.018 350.299 168.27C350.794 168.522 351.186 168.849 351.475 169.25L350.649 169.922C350.08 169.241 349.403 168.9 348.619 168.9C348.069 168.9 347.607 169.045 347.233 169.334C346.869 169.614 346.687 169.978 346.687 170.426C346.687 170.865 346.799 171.21 347.023 171.462C347.257 171.705 347.639 171.929 348.171 172.134L349.487 172.638C350.262 172.937 350.841 173.31 351.223 173.758C351.606 174.206 351.797 174.785 351.797 175.494C351.797 176.315 351.513 176.969 350.943 177.454C350.374 177.93 349.632 178.168 348.717 178.168ZM362.155 178H361.217L354.875 169.866V178H353.811V168.06H354.749L361.091 176.194V168.06H362.155V178ZM363.652 178L368.076 168.06H368.93L373.368 178H372.248L370.862 174.906H366.116L364.744 178H363.652ZM368.482 169.558L366.55 173.912H370.428L368.482 169.558ZM375.859 178H374.319V176.46H375.859V178ZM378.092 178V168.06H381.34C382.255 168.06 382.973 168.303 383.496 168.788C384.019 169.264 384.28 169.913 384.28 170.734C384.28 171.499 384.047 172.12 383.58 172.596C383.123 173.063 382.488 173.329 381.676 173.394L385.61 178H384.224L380.29 173.38H379.156V178H378.092ZM379.156 172.4H381.214C382.539 172.4 383.202 171.845 383.202 170.734C383.202 169.614 382.539 169.054 381.214 169.054H379.156V172.4ZM389.473 178.168C388.67 178.168 387.956 178 387.331 177.664C386.706 177.319 386.276 176.889 386.043 176.376L386.925 175.746C387.513 176.689 388.367 177.16 389.487 177.16C390.066 177.16 390.542 177.011 390.915 176.712C391.298 176.413 391.489 176.017 391.489 175.522C391.489 174.691 391.008 174.089 390.047 173.716L388.577 173.156C387.802 172.867 387.242 172.512 386.897 172.092C386.552 171.672 386.379 171.121 386.379 170.44C386.379 169.675 386.664 169.059 387.233 168.592C387.812 168.125 388.54 167.892 389.417 167.892C390.024 167.892 390.57 168.018 391.055 168.27C391.55 168.522 391.942 168.849 392.231 169.25L391.405 169.922C390.836 169.241 390.159 168.9 389.375 168.9C388.824 168.9 388.362 169.045 387.989 169.334C387.625 169.614 387.443 169.978 387.443 170.426C387.443 170.865 387.555 171.21 387.779 171.462C388.012 171.705 388.395 171.929 388.927 172.134L390.243 172.638C391.018 172.937 391.596 173.31 391.979 173.758C392.362 174.206 392.553 174.785 392.553 175.494C392.553 176.315 392.268 176.969 391.699 177.454C391.13 177.93 390.388 178.168 389.473 178.168Z" fill="#6D6D6D"/>
<path d="M729.203 19.0159C737.305 0.200467 743.053 -20.336 740.421 -40.6521C737.789 -60.9681 725.307 -80.9332 706.028 -87.8777C692.385 -92.7866 676.373 -90.4956 664.651 -81.957C652.928 -73.4183 645.836 -58.8841 646.321 -44.3925C647.273 -15.9949 674.532 6.8961 673.742 35.2786C673.118 57.4511 653.842 76.3677 632.077 80.6456C610.312 84.9235 587.456 76.5818 570.229 62.6128C564.132 57.6691 558.508 51.9771 551.518 48.4088C544.528 44.8405 535.557 43.7857 529.112 48.2663C521.029 53.8835 520.136 65.9708 523.922 75.0558C527.708 84.1408 532.78 86.6393 538.883 94.365C575.902 138.105 577.938 189.939 492.902 193.948C336.932 201.3 328.919 346.399 514.508 363.98" stroke="#FDC52D" stroke-width="4" stroke-miterlimit="10"/>
<path d="M324.822 -81.0185C338.291 -91.7441 345.905 -109.412 344.451 -126.566C342.998 -143.72 332.53 -159.858 317.441 -168.164C306.76 -174.047 293.66 -176.012 282.127 -172.06C270.593 -168.109 261.098 -157.797 259.499 -145.709C256.728 -124.795 276.267 -106.805 277.148 -85.7248C277.8 -70.0904 267.17 -55.1061 252.828 -48.8503C238.485 -42.5944 221.311 -44.4956 207.625 -52.0901C197.249 -57.8451 188.698 -66.5842 178.057 -71.8404C167.417 -77.0966 152.889 -77.7979 145.173 -68.7838C137.457 -59.7698 140.343 -45.6509 146.893 -35.795C153.443 -25.939 163.003 -18.3403 169.344 -8.35216C175.685 1.63595 177.925 16.0384 169.676 24.5238C165.759 28.5523 160.17 30.4919 154.658 31.596C118.753 38.7429 78.9351 15.7272 46.3405 32.3953C30.6016 40.4438 19.9101 57.5468 19.5819 75.2168C19.2536 92.8867 29.2779 110.386 44.7013 119.021C61.994 128.704 83.1021 127.12 102.605 130.633C122.108 134.146 143.478 147.493 142.854 167.295C142.276 185.553 121.569 198.128 103.443 195.856C85.3167 193.584 70.3089 180.723 58.5773 166.71C50.5991 157.189 43.3308 146.662 32.8716 139.958C14.0315 127.879 -10.6766 130.917 -32.0809 137.456C-53.4852 143.995 -74.54 153.679 -96.9205 153.638C-120.736 153.595 -143.741 142.071 -160.225 124.876C-176.71 107.681 -187.007 85.2304 -192.272 61.9973C-198.635 33.881 -198.381 3.31342 -213.342 -21.3243C-231.084 -50.5256 -266.576 -64.474 -300.592 -67.684C-327.704 -70.2418 -356.179 -66.9295 -379.572 -52.9768C-402.965 -39.0241 -420.247 -13.1203 -418.929 14.0795" stroke="#FDC52D" stroke-width="4" stroke-miterlimit="10"/>
</g>
<path d="M0 1H600V-1H0V1Z" fill="#F8F8F8" mask="url(#path-1-inside-1_181_184)"/>
<defs>
<clipPath id="clip0_181_184">
<path d="M0 0H600V238H0V0Z" fill="white"/>
</clipPath>
</defs>
</svg>
