<svg width="600" height="200" viewBox="0 0 600 200" fill="none" xmlns="http://www.w3.org/2000/svg">
<g clip-path="url(#clip0_182_1066)">
<mask id="path-1-inside-1_182_1066" fill="white">
<path d="M0 0H600V200H0V0Z"/>
</mask>
<path d="M0 0H600V200H0V0Z" fill="white"/>
<path d="M166.06 65.116C167.26 65.116 168.172 65.26 168.796 65.548C169.42 65.812 169.972 66.112 170.452 66.448C170.74 66.616 170.968 66.748 171.136 66.844C171.328 66.916 171.508 66.952 171.676 66.952C171.916 66.952 172.084 66.82 172.18 66.556C172.3 66.292 172.396 65.896 172.468 65.368H173.296C173.272 65.776 173.236 66.268 173.188 66.844C173.164 67.396 173.14 68.14 173.116 69.076C173.116 69.988 173.116 71.2 173.116 72.712H172.288C172.216 71.56 171.964 70.456 171.532 69.4C171.1 68.344 170.464 67.48 169.624 66.808C168.808 66.136 167.728 65.8 166.384 65.8C165.112 65.8 164.056 66.184 163.216 66.952C162.4 67.72 161.992 68.728 161.992 69.976C161.992 71.056 162.268 71.968 162.82 72.712C163.372 73.432 164.104 74.092 165.016 74.692C165.952 75.268 166.96 75.892 168.04 76.564C169.288 77.332 170.392 78.1 171.352 78.868C172.336 79.612 173.104 80.44 173.656 81.352C174.232 82.264 174.52 83.368 174.52 84.664C174.52 86.2 174.172 87.472 173.476 88.48C172.78 89.488 171.856 90.244 170.704 90.748C169.552 91.252 168.28 91.504 166.888 91.504C165.616 91.504 164.608 91.36 163.864 91.072C163.12 90.784 162.484 90.484 161.956 90.172C161.428 89.836 161.02 89.668 160.732 89.668C160.492 89.668 160.312 89.8 160.192 90.064C160.096 90.328 160.012 90.724 159.94 91.252H159.112C159.16 90.748 159.184 90.16 159.184 89.488C159.208 88.792 159.22 87.892 159.22 86.788C159.244 85.684 159.256 84.292 159.256 82.612H160.084C160.18 84.052 160.444 85.396 160.876 86.644C161.332 87.892 162.016 88.9 162.928 89.668C163.864 90.412 165.1 90.784 166.636 90.784C167.428 90.784 168.172 90.628 168.868 90.316C169.588 89.98 170.176 89.464 170.632 88.768C171.088 88.048 171.316 87.124 171.316 85.996C171.316 85.012 171.076 84.16 170.596 83.44C170.14 82.696 169.492 82.012 168.652 81.388C167.812 80.74 166.828 80.08 165.7 79.408C164.572 78.712 163.516 78.004 162.532 77.284C161.548 76.564 160.756 75.736 160.156 74.8C159.58 73.84 159.292 72.688 159.292 71.344C159.292 69.928 159.604 68.764 160.228 67.852C160.876 66.916 161.716 66.232 162.748 65.8C163.78 65.344 164.884 65.116 166.06 65.116ZM186.762 65.512C187.266 65.536 187.926 65.56 188.742 65.584C189.558 65.608 190.362 65.62 191.154 65.62C192.282 65.62 193.362 65.608 194.394 65.584C195.426 65.56 196.158 65.548 196.59 65.548C199.494 65.548 201.666 66.208 203.106 67.528C204.546 68.848 205.266 70.552 205.266 72.64C205.266 73.504 205.122 74.416 204.834 75.376C204.546 76.312 204.042 77.188 203.322 78.004C202.626 78.796 201.666 79.444 200.442 79.948C199.218 80.452 197.67 80.704 195.798 80.704H192.342V79.984H195.438C197.142 79.984 198.438 79.66 199.326 79.012C200.238 78.364 200.85 77.512 201.162 76.456C201.498 75.4 201.666 74.26 201.666 73.036C201.666 70.756 201.21 69.052 200.298 67.924C199.41 66.796 197.874 66.232 195.69 66.232C194.586 66.232 193.866 66.436 193.53 66.844C193.194 67.252 193.026 68.08 193.026 69.328V87.184C193.026 88.048 193.11 88.696 193.278 89.128C193.47 89.56 193.83 89.848 194.358 89.992C194.886 90.136 195.654 90.232 196.662 90.28V91C196.038 90.952 195.246 90.928 194.286 90.928C193.326 90.904 192.354 90.892 191.37 90.892C190.434 90.892 189.558 90.904 188.742 90.928C187.926 90.928 187.266 90.952 186.762 91V90.28C187.578 90.232 188.19 90.136 188.598 89.992C189.03 89.848 189.318 89.56 189.462 89.128C189.606 88.696 189.678 88.048 189.678 87.184V69.328C189.678 68.44 189.606 67.792 189.462 67.384C189.318 66.952 189.03 66.664 188.598 66.52C188.19 66.352 187.578 66.256 186.762 66.232V65.512ZM219.665 65.008C221.945 65.008 223.937 65.524 225.641 66.556C227.369 67.588 228.701 69.076 229.637 71.02C230.597 72.94 231.077 75.28 231.077 78.04C231.077 80.728 230.585 83.08 229.601 85.096C228.641 87.112 227.297 88.684 225.569 89.812C223.841 90.94 221.861 91.504 219.629 91.504C217.349 91.504 215.345 90.988 213.617 89.956C211.913 88.924 210.581 87.436 209.621 85.492C208.685 83.548 208.217 81.208 208.217 78.472C208.217 75.784 208.709 73.432 209.693 71.416C210.677 69.4 212.021 67.828 213.725 66.7C215.453 65.572 217.433 65.008 219.665 65.008ZM219.521 65.656C217.961 65.656 216.605 66.196 215.453 67.276C214.301 68.356 213.401 69.844 212.753 71.74C212.129 73.636 211.817 75.832 211.817 78.328C211.817 80.872 212.165 83.092 212.861 84.988C213.581 86.86 214.541 88.312 215.741 89.344C216.965 90.352 218.309 90.856 219.773 90.856C221.333 90.856 222.689 90.316 223.841 89.236C224.993 88.156 225.881 86.668 226.505 84.772C227.153 82.852 227.477 80.656 227.477 78.184C227.477 75.616 227.117 73.396 226.397 71.524C225.701 69.652 224.753 68.212 223.553 67.204C222.353 66.172 221.009 65.656 219.521 65.656ZM242.208 65.116C243.408 65.116 244.32 65.26 244.944 65.548C245.568 65.812 246.12 66.112 246.6 66.448C246.888 66.616 247.116 66.748 247.284 66.844C247.476 66.916 247.656 66.952 247.824 66.952C248.064 66.952 248.232 66.82 248.328 66.556C248.448 66.292 248.544 65.896 248.616 65.368H249.444C249.42 65.776 249.384 66.268 249.336 66.844C249.312 67.396 249.288 68.14 249.264 69.076C249.264 69.988 249.264 71.2 249.264 72.712H248.436C248.364 71.56 248.112 70.456 247.68 69.4C247.248 68.344 246.612 67.48 245.772 66.808C244.956 66.136 243.876 65.8 242.532 65.8C241.26 65.8 240.204 66.184 239.364 66.952C238.548 67.72 238.14 68.728 238.14 69.976C238.14 71.056 238.416 71.968 238.968 72.712C239.52 73.432 240.252 74.092 241.164 74.692C242.1 75.268 243.108 75.892 244.188 76.564C245.436 77.332 246.54 78.1 247.5 78.868C248.484 79.612 249.252 80.44 249.804 81.352C250.38 82.264 250.668 83.368 250.668 84.664C250.668 86.2 250.32 87.472 249.624 88.48C248.928 89.488 248.004 90.244 246.852 90.748C245.7 91.252 244.428 91.504 243.036 91.504C241.764 91.504 240.756 91.36 240.012 91.072C239.268 90.784 238.632 90.484 238.104 90.172C237.576 89.836 237.168 89.668 236.88 89.668C236.64 89.668 236.46 89.8 236.34 90.064C236.244 90.328 236.16 90.724 236.088 91.252H235.26C235.308 90.748 235.332 90.16 235.332 89.488C235.356 88.792 235.368 87.892 235.368 86.788C235.392 85.684 235.404 84.292 235.404 82.612H236.232C236.328 84.052 236.592 85.396 237.024 86.644C237.48 87.892 238.164 88.9 239.076 89.668C240.012 90.412 241.248 90.784 242.784 90.784C243.576 90.784 244.32 90.628 245.016 90.316C245.736 89.98 246.324 89.464 246.78 88.768C247.236 88.048 247.464 87.124 247.464 85.996C247.464 85.012 247.224 84.16 246.744 83.44C246.288 82.696 245.64 82.012 244.8 81.388C243.96 80.74 242.976 80.08 241.848 79.408C240.72 78.712 239.664 78.004 238.68 77.284C237.696 76.564 236.904 75.736 236.304 74.8C235.728 73.84 235.44 72.688 235.44 71.344C235.44 69.928 235.752 68.764 236.376 67.852C237.024 66.916 237.864 66.232 238.896 65.8C239.928 65.344 241.032 65.116 242.208 65.116ZM249.66 57.664L249.84 58.168C248.28 58.696 246.9 59.392 245.7 60.256C244.524 61.12 243.66 62.008 243.108 62.92H242.46C241.908 62.008 241.032 61.12 239.832 60.256C238.656 59.392 237.288 58.696 235.728 58.168L235.908 57.664C237.348 57.976 238.764 58.36 240.156 58.816C241.572 59.272 242.688 59.728 243.504 60.184C244.2 59.728 245.112 59.272 246.24 58.816C247.368 58.36 248.508 57.976 249.66 57.664ZM273.746 65.512C273.65 66.424 273.578 67.312 273.53 68.176C273.506 69.016 273.494 69.664 273.494 70.12C273.494 70.696 273.506 71.236 273.53 71.74C273.554 72.244 273.578 72.688 273.602 73.072H272.774C272.606 71.392 272.378 70.072 272.09 69.112C271.802 68.128 271.298 67.42 270.578 66.988C269.858 66.556 268.742 66.34 267.23 66.34H265.286V86.824C265.286 87.784 265.37 88.504 265.538 88.984C265.73 89.464 266.09 89.788 266.618 89.956C267.146 90.124 267.914 90.232 268.922 90.28V91C268.298 90.952 267.506 90.928 266.546 90.928C265.586 90.904 264.614 90.892 263.63 90.892C262.55 90.892 261.53 90.904 260.57 90.928C259.634 90.928 258.878 90.952 258.302 91V90.28C259.31 90.232 260.078 90.124 260.606 89.956C261.134 89.788 261.482 89.464 261.65 88.984C261.842 88.504 261.938 87.784 261.938 86.824V66.34H259.994C258.506 66.34 257.39 66.556 256.646 66.988C255.926 67.42 255.422 68.128 255.134 69.112C254.846 70.072 254.618 71.392 254.45 73.072H253.622C253.67 72.688 253.694 72.244 253.694 71.74C253.718 71.236 253.73 70.696 253.73 70.12C253.73 69.664 253.706 69.016 253.658 68.176C253.634 67.312 253.574 66.424 253.478 65.512C254.486 65.536 255.578 65.56 256.754 65.584C257.954 65.608 259.154 65.62 260.354 65.62C261.554 65.62 262.646 65.62 263.63 65.62C264.614 65.62 265.694 65.62 266.87 65.62C268.07 65.62 269.27 65.608 270.47 65.584C271.67 65.56 272.762 65.536 273.746 65.512ZM288.149 65.008C290.429 65.008 292.421 65.524 294.125 66.556C295.853 67.588 297.185 69.076 298.121 71.02C299.081 72.94 299.561 75.28 299.561 78.04C299.561 80.728 299.069 83.08 298.085 85.096C297.125 87.112 295.781 88.684 294.053 89.812C292.325 90.94 290.345 91.504 288.113 91.504C285.833 91.504 283.829 90.988 282.101 89.956C280.397 88.924 279.065 87.436 278.105 85.492C277.169 83.548 276.701 81.208 276.701 78.472C276.701 75.784 277.193 73.432 278.177 71.416C279.161 69.4 280.505 67.828 282.209 66.7C283.937 65.572 285.917 65.008 288.149 65.008ZM288.005 65.656C286.445 65.656 285.089 66.196 283.937 67.276C282.785 68.356 281.885 69.844 281.237 71.74C280.613 73.636 280.301 75.832 280.301 78.328C280.301 80.872 280.649 83.092 281.345 84.988C282.065 86.86 283.025 88.312 284.225 89.344C285.449 90.352 286.793 90.856 288.257 90.856C289.817 90.856 291.173 90.316 292.325 89.236C293.477 88.156 294.365 86.668 294.989 84.772C295.637 82.852 295.961 80.656 295.961 78.184C295.961 75.616 295.601 73.396 294.881 71.524C294.185 69.652 293.237 68.212 292.037 67.204C290.837 66.172 289.493 65.656 288.005 65.656ZM323.916 65.512V66.232C323.46 66.328 322.968 66.604 322.44 67.06C321.936 67.516 321.48 68.284 321.072 69.364L312.612 91.18C312.564 91.18 312.516 91.18 312.468 91.18C312.42 91.18 312.372 91.18 312.324 91.18C312.276 91.18 312.228 91.18 312.18 91.18C312.132 91.18 312.084 91.18 312.036 91.18L303.252 68.536C302.892 67.624 302.484 67.024 302.028 66.736C301.572 66.424 301.152 66.256 300.768 66.232V65.512C301.248 65.536 301.836 65.56 302.532 65.584C303.252 65.608 303.948 65.62 304.62 65.62C305.556 65.62 306.432 65.608 307.248 65.584C308.064 65.56 308.724 65.536 309.228 65.512V66.232C308.412 66.256 307.788 66.352 307.356 66.52C306.948 66.688 306.72 66.988 306.672 67.42C306.648 67.828 306.792 68.44 307.104 69.256L313.8 87.004L313.224 87.616L319.488 71.344C319.992 70.048 320.232 69.04 320.208 68.32C320.184 67.576 319.908 67.048 319.38 66.736C318.852 66.424 318.084 66.256 317.076 66.232V65.512C317.772 65.536 318.48 65.56 319.2 65.584C319.92 65.608 320.592 65.62 321.216 65.62C321.84 65.62 322.356 65.608 322.764 65.584C323.172 65.56 323.556 65.536 323.916 65.512ZM332.968 65.332L341.752 87.976C342.112 88.888 342.52 89.5 342.976 89.812C343.432 90.1 343.852 90.256 344.236 90.28V91C343.756 90.952 343.168 90.928 342.472 90.928C341.776 90.904 341.08 90.892 340.384 90.892C339.448 90.892 338.572 90.904 337.756 90.928C336.94 90.928 336.28 90.952 335.776 91V90.28C337 90.232 337.78 90.028 338.116 89.668C338.452 89.284 338.38 88.48 337.9 87.256L331.204 69.364L331.78 68.896L325.516 85.168C325.132 86.128 324.904 86.944 324.832 87.616C324.76 88.264 324.82 88.78 325.012 89.164C325.228 89.548 325.576 89.824 326.056 89.992C326.56 90.16 327.184 90.256 327.928 90.28V91C327.256 90.952 326.548 90.928 325.804 90.928C325.084 90.904 324.412 90.892 323.788 90.892C323.188 90.892 322.672 90.904 322.24 90.928C321.832 90.928 321.448 90.952 321.088 91V90.28C321.568 90.16 322.06 89.884 322.564 89.452C323.068 88.996 323.524 88.228 323.932 87.148L332.392 65.332C332.488 65.332 332.584 65.332 332.68 65.332C332.776 65.332 332.872 65.332 332.968 65.332ZM337.36 80.632V81.352H326.632L326.992 80.632H337.36ZM367.433 65.512V66.232C366.617 66.256 365.993 66.376 365.561 66.592C365.153 66.808 364.877 67.156 364.733 67.636C364.589 68.116 364.517 68.8 364.517 69.688V91.18C364.373 91.18 364.229 91.18 364.085 91.18C363.965 91.18 363.833 91.18 363.689 91.18L348.569 67.816V86.824C348.569 87.688 348.641 88.372 348.785 88.876C348.953 89.356 349.265 89.704 349.721 89.92C350.201 90.112 350.909 90.232 351.845 90.28V91C351.413 90.952 350.849 90.928 350.153 90.928C349.457 90.904 348.797 90.892 348.173 90.892C347.573 90.892 346.961 90.904 346.337 90.928C345.737 90.928 345.233 90.952 344.825 91V90.28C345.641 90.232 346.253 90.112 346.661 89.92C347.093 89.704 347.381 89.356 347.525 88.876C347.669 88.372 347.741 87.688 347.741 86.824V69.328C347.741 68.44 347.669 67.792 347.525 67.384C347.381 66.952 347.093 66.664 346.661 66.52C346.253 66.352 345.641 66.256 344.825 66.232V65.512C345.233 65.536 345.737 65.56 346.337 65.584C346.961 65.608 347.573 65.62 348.173 65.62C348.701 65.62 349.205 65.608 349.685 65.584C350.165 65.56 350.597 65.536 350.981 65.512L363.689 85.096V69.688C363.689 68.8 363.605 68.116 363.437 67.636C363.293 67.156 362.981 66.808 362.501 66.592C362.045 66.376 361.349 66.256 360.413 66.232V65.512C360.845 65.536 361.409 65.56 362.105 65.584C362.825 65.608 363.485 65.62 364.085 65.62C364.709 65.62 365.321 65.608 365.921 65.584C366.545 65.56 367.049 65.536 367.433 65.512ZM368.01 97.768V97.084C369.09 97.06 369.99 96.796 370.71 96.292C371.454 95.788 372.006 94.948 372.366 93.772C372.75 92.62 372.942 91.072 372.942 89.128V69.328C372.942 68.44 372.87 67.792 372.726 67.384C372.582 66.952 372.294 66.664 371.862 66.52C371.454 66.352 370.842 66.256 370.026 66.232V65.512C370.53 65.536 371.19 65.56 372.006 65.584C372.822 65.608 373.674 65.62 374.562 65.62C375.45 65.62 376.302 65.608 377.118 65.584C377.958 65.56 378.654 65.536 379.206 65.512V66.232C378.39 66.256 377.766 66.352 377.334 66.52C376.926 66.664 376.65 66.952 376.506 67.384C376.362 67.792 376.29 68.44 376.29 69.328V82.504C376.29 83.488 376.278 84.556 376.254 85.708C376.23 86.86 376.17 87.976 376.074 89.056C376.002 90.136 375.87 91.084 375.678 91.9C375.27 93.58 374.406 94.972 373.086 96.076C371.79 97.204 370.098 97.768 368.01 97.768ZM399.949 65.512C399.853 66.352 399.781 67.168 399.733 67.96C399.709 68.752 399.697 69.352 399.697 69.76C399.697 70.192 399.709 70.612 399.733 71.02C399.757 71.404 399.781 71.728 399.805 71.992H398.977C398.833 70.576 398.629 69.46 398.365 68.644C398.101 67.804 397.645 67.216 396.997 66.88C396.373 66.52 395.425 66.34 394.153 66.34H391.165C390.349 66.34 389.725 66.412 389.293 66.556C388.885 66.676 388.609 66.952 388.465 67.384C388.321 67.792 388.249 68.44 388.249 69.328V87.184C388.249 88.048 388.321 88.696 388.465 89.128C388.609 89.56 388.885 89.848 389.293 89.992C389.725 90.112 390.349 90.172 391.165 90.172H393.793C395.305 90.172 396.445 89.968 397.213 89.56C398.005 89.152 398.569 88.492 398.905 87.58C399.265 86.644 399.529 85.384 399.697 83.8H400.525C400.453 84.448 400.417 85.312 400.417 86.392C400.417 86.848 400.429 87.508 400.453 88.372C400.501 89.212 400.573 90.088 400.669 91C399.445 90.952 398.065 90.928 396.529 90.928C394.993 90.904 393.625 90.892 392.425 90.892C391.897 90.892 391.213 90.892 390.373 90.892C389.557 90.892 388.669 90.904 387.709 90.928C386.749 90.928 385.777 90.94 384.793 90.964C383.809 90.964 382.873 90.976 381.985 91V90.28C382.801 90.232 383.413 90.136 383.821 89.992C384.253 89.848 384.541 89.56 384.685 89.128C384.829 88.696 384.901 88.048 384.901 87.184V69.328C384.901 68.44 384.829 67.792 384.685 67.384C384.541 66.952 384.253 66.664 383.821 66.52C383.413 66.352 382.801 66.256 381.985 66.232V65.512C382.873 65.536 383.809 65.56 384.793 65.584C385.777 65.584 386.749 65.596 387.709 65.62C388.669 65.62 389.557 65.62 390.373 65.62C391.213 65.62 391.897 65.62 392.425 65.62C393.529 65.62 394.777 65.62 396.169 65.62C397.585 65.596 398.845 65.56 399.949 65.512ZM393.757 77.824C393.757 77.824 393.757 77.944 393.757 78.184C393.757 78.424 393.757 78.544 393.757 78.544H387.169C387.169 78.544 387.169 78.424 387.169 78.184C387.169 77.944 387.169 77.824 387.169 77.824H393.757ZM394.801 73.072C394.705 74.44 394.657 75.484 394.657 76.204C394.681 76.924 394.693 77.584 394.693 78.184C394.693 78.784 394.705 79.444 394.729 80.164C394.753 80.884 394.813 81.928 394.909 83.296H394.081C393.985 82.528 393.865 81.784 393.721 81.064C393.601 80.32 393.313 79.72 392.857 79.264C392.425 78.784 391.681 78.544 390.625 78.544V77.824C391.417 77.824 392.017 77.668 392.425 77.356C392.857 77.02 393.169 76.6 393.361 76.096C393.553 75.592 393.685 75.076 393.757 74.548C393.829 73.996 393.901 73.504 393.973 73.072H394.801ZM432.254 65.512V66.232C431.438 66.256 430.814 66.352 430.382 66.52C429.974 66.664 429.698 66.952 429.554 67.384C429.41 67.792 429.338 68.44 429.338 69.328V87.184C429.338 88.048 429.41 88.696 429.554 89.128C429.698 89.56 429.974 89.848 430.382 89.992C430.814 90.136 431.438 90.232 432.254 90.28V91C431.702 90.952 431.006 90.928 430.166 90.928C429.35 90.904 428.522 90.892 427.682 90.892C426.746 90.892 425.87 90.904 425.054 90.928C424.238 90.928 423.578 90.952 423.074 91V90.28C423.89 90.232 424.502 90.136 424.91 89.992C425.342 89.848 425.63 89.56 425.774 89.128C425.918 88.696 425.99 88.048 425.99 87.184V67.384L426.134 67.492L417.314 91.18H416.738L407.666 67.816V86.824C407.666 87.688 407.738 88.372 407.882 88.876C408.05 89.356 408.362 89.704 408.818 89.92C409.298 90.112 410.006 90.232 410.942 90.28V91C410.51 90.952 409.946 90.928 409.25 90.928C408.554 90.904 407.894 90.892 407.27 90.892C406.67 90.892 406.058 90.904 405.434 90.928C404.834 90.928 404.33 90.952 403.922 91V90.28C404.738 90.232 405.35 90.112 405.758 89.92C406.19 89.704 406.478 89.356 406.622 88.876C406.766 88.372 406.838 87.688 406.838 86.824V69.328C406.838 68.44 406.766 67.792 406.622 67.384C406.478 66.952 406.19 66.664 405.758 66.52C405.35 66.352 404.738 66.256 403.922 66.232V65.512C404.33 65.536 404.834 65.56 405.434 65.584C406.058 65.608 406.67 65.62 407.27 65.62C407.798 65.62 408.338 65.608 408.89 65.584C409.466 65.56 409.946 65.536 410.33 65.512L418.502 87.04L417.89 87.328L425.99 65.62C426.278 65.62 426.554 65.62 426.818 65.62C427.106 65.62 427.394 65.62 427.682 65.62C428.522 65.62 429.35 65.608 430.166 65.584C431.006 65.56 431.702 65.536 432.254 65.512ZM438.306 86.896C438.834 86.896 439.266 87.004 439.602 87.22C439.938 87.436 440.214 87.712 440.43 88.048C440.694 88.432 440.862 88.852 440.934 89.308C441.006 89.764 441.042 90.136 441.042 90.424C441.042 91.6 440.742 92.668 440.142 93.628C439.542 94.588 438.606 95.368 437.334 95.968L437.01 95.32C437.754 95.008 438.39 94.516 438.918 93.844C439.47 93.172 439.746 92.488 439.746 91.792C439.746 91.504 439.71 91.252 439.638 91.036C439.254 91.348 438.81 91.504 438.306 91.504C437.682 91.504 437.142 91.3 436.686 90.892C436.23 90.484 436.002 89.92 436.002 89.2C436.002 88.528 436.23 87.976 436.686 87.544C437.142 87.112 437.682 86.896 438.306 86.896ZM241.036 113.512V114.232C240.58 114.328 240.088 114.604 239.56 115.06C239.056 115.516 238.6 116.284 238.192 117.364L229.732 139.18C229.684 139.18 229.636 139.18 229.588 139.18C229.54 139.18 229.492 139.18 229.444 139.18C229.396 139.18 229.348 139.18 229.3 139.18C229.252 139.18 229.204 139.18 229.156 139.18L220.372 116.536C220.012 115.624 219.604 115.024 219.148 114.736C218.692 114.424 218.272 114.256 217.888 114.232V113.512C218.368 113.536 218.956 113.56 219.652 113.584C220.372 113.608 221.068 113.62 221.74 113.62C222.676 113.62 223.552 113.608 224.368 113.584C225.184 113.56 225.844 113.536 226.348 113.512V114.232C225.532 114.256 224.908 114.352 224.476 114.52C224.068 114.688 223.84 114.988 223.792 115.42C223.768 115.828 223.912 116.44 224.224 117.256L230.92 135.004L230.344 135.616L236.608 119.344C237.112 118.048 237.352 117.04 237.328 116.32C237.304 115.576 237.028 115.048 236.5 114.736C235.972 114.424 235.204 114.256 234.196 114.232V113.512C234.892 113.536 235.6 113.56 236.32 113.584C237.04 113.608 237.712 113.62 238.336 113.62C238.96 113.62 239.476 113.608 239.884 113.584C240.292 113.56 240.676 113.536 241.036 113.512ZM260.255 113.512C260.159 114.352 260.087 115.168 260.039 115.96C260.015 116.752 260.003 117.352 260.003 117.76C260.003 118.192 260.015 118.612 260.039 119.02C260.063 119.404 260.087 119.728 260.111 119.992H259.283C259.139 118.576 258.935 117.46 258.671 116.644C258.407 115.804 257.951 115.216 257.303 114.88C256.679 114.52 255.731 114.34 254.459 114.34H251.471C250.655 114.34 250.031 114.412 249.599 114.556C249.191 114.676 248.915 114.952 248.771 115.384C248.627 115.792 248.555 116.44 248.555 117.328V135.184C248.555 136.048 248.627 136.696 248.771 137.128C248.915 137.56 249.191 137.848 249.599 137.992C250.031 138.112 250.655 138.172 251.471 138.172H254.099C255.611 138.172 256.751 137.968 257.519 137.56C258.311 137.152 258.875 136.492 259.211 135.58C259.571 134.644 259.835 133.384 260.003 131.8H260.831C260.759 132.448 260.723 133.312 260.723 134.392C260.723 134.848 260.735 135.508 260.759 136.372C260.807 137.212 260.879 138.088 260.975 139C259.751 138.952 258.371 138.928 256.835 138.928C255.299 138.904 253.931 138.892 252.731 138.892C252.203 138.892 251.519 138.892 250.679 138.892C249.863 138.892 248.975 138.904 248.015 138.928C247.055 138.928 246.083 138.94 245.099 138.964C244.115 138.964 243.179 138.976 242.291 139V138.28C243.107 138.232 243.719 138.136 244.127 137.992C244.559 137.848 244.847 137.56 244.991 137.128C245.135 136.696 245.207 136.048 245.207 135.184V117.328C245.207 116.44 245.135 115.792 244.991 115.384C244.847 114.952 244.559 114.664 244.127 114.52C243.719 114.352 243.107 114.256 242.291 114.232V113.512C243.179 113.536 244.115 113.56 245.099 113.584C246.083 113.584 247.055 113.596 248.015 113.62C248.975 113.62 249.863 113.62 250.679 113.62C251.519 113.62 252.203 113.62 252.731 113.62C253.835 113.62 255.083 113.62 256.475 113.62C257.891 113.596 259.151 113.56 260.255 113.512ZM254.063 125.824C254.063 125.824 254.063 125.944 254.063 126.184C254.063 126.424 254.063 126.544 254.063 126.544H247.475C247.475 126.544 247.475 126.424 247.475 126.184C247.475 125.944 247.475 125.824 247.475 125.824H254.063ZM255.107 121.072C255.011 122.44 254.963 123.484 254.963 124.204C254.987 124.924 254.999 125.584 254.999 126.184C254.999 126.784 255.011 127.444 255.035 128.164C255.059 128.884 255.119 129.928 255.215 131.296H254.387C254.291 130.528 254.171 129.784 254.027 129.064C253.907 128.32 253.619 127.72 253.163 127.264C252.731 126.784 251.987 126.544 250.931 126.544V125.824C251.723 125.824 252.323 125.668 252.731 125.356C253.163 125.02 253.475 124.6 253.667 124.096C253.859 123.592 253.991 123.076 254.063 122.548C254.135 121.996 254.207 121.504 254.279 121.072H255.107ZM271.933 113.116C273.133 113.116 274.045 113.26 274.669 113.548C275.293 113.812 275.845 114.112 276.325 114.448C276.613 114.616 276.841 114.748 277.009 114.844C277.201 114.916 277.381 114.952 277.549 114.952C277.789 114.952 277.957 114.82 278.053 114.556C278.173 114.292 278.269 113.896 278.341 113.368H279.169C279.145 113.776 279.109 114.268 279.061 114.844C279.037 115.396 279.013 116.14 278.989 117.076C278.989 117.988 278.989 119.2 278.989 120.712H278.161C278.089 119.56 277.837 118.456 277.405 117.4C276.973 116.344 276.337 115.48 275.497 114.808C274.681 114.136 273.601 113.8 272.257 113.8C270.985 113.8 269.929 114.184 269.089 114.952C268.273 115.72 267.865 116.728 267.865 117.976C267.865 119.056 268.141 119.968 268.693 120.712C269.245 121.432 269.977 122.092 270.889 122.692C271.825 123.268 272.833 123.892 273.913 124.564C275.161 125.332 276.265 126.1 277.225 126.868C278.209 127.612 278.977 128.44 279.529 129.352C280.105 130.264 280.393 131.368 280.393 132.664C280.393 134.2 280.045 135.472 279.349 136.48C278.653 137.488 277.729 138.244 276.577 138.748C275.425 139.252 274.153 139.504 272.761 139.504C271.489 139.504 270.481 139.36 269.737 139.072C268.993 138.784 268.357 138.484 267.829 138.172C267.301 137.836 266.893 137.668 266.605 137.668C266.365 137.668 266.185 137.8 266.065 138.064C265.969 138.328 265.885 138.724 265.813 139.252H264.985C265.033 138.748 265.057 138.16 265.057 137.488C265.081 136.792 265.093 135.892 265.093 134.788C265.117 133.684 265.129 132.292 265.129 130.612H265.957C266.053 132.052 266.317 133.396 266.749 134.644C267.205 135.892 267.889 136.9 268.801 137.668C269.737 138.412 270.973 138.784 272.509 138.784C273.301 138.784 274.045 138.628 274.741 138.316C275.461 137.98 276.049 137.464 276.505 136.768C276.961 136.048 277.189 135.124 277.189 133.996C277.189 133.012 276.949 132.16 276.469 131.44C276.013 130.696 275.365 130.012 274.525 129.388C273.685 128.74 272.701 128.08 271.573 127.408C270.445 126.712 269.389 126.004 268.405 125.284C267.421 124.564 266.629 123.736 266.029 122.8C265.453 121.84 265.165 120.688 265.165 119.344C265.165 117.928 265.477 116.764 266.101 115.852C266.749 114.916 267.589 114.232 268.621 113.8C269.653 113.344 270.757 113.116 271.933 113.116ZM306.278 113.512V114.232C305.462 114.256 304.838 114.376 304.406 114.592C303.998 114.808 303.722 115.156 303.578 115.636C303.434 116.116 303.362 116.8 303.362 117.688V139.18C303.218 139.18 303.074 139.18 302.93 139.18C302.81 139.18 302.678 139.18 302.534 139.18L287.414 115.816V134.824C287.414 135.688 287.486 136.372 287.63 136.876C287.798 137.356 288.11 137.704 288.566 137.92C289.046 138.112 289.754 138.232 290.69 138.28V139C290.258 138.952 289.694 138.928 288.998 138.928C288.302 138.904 287.642 138.892 287.018 138.892C286.418 138.892 285.806 138.904 285.182 138.928C284.582 138.928 284.078 138.952 283.67 139V138.28C284.486 138.232 285.098 138.112 285.506 137.92C285.938 137.704 286.226 137.356 286.37 136.876C286.514 136.372 286.586 135.688 286.586 134.824V117.328C286.586 116.44 286.514 115.792 286.37 115.384C286.226 114.952 285.938 114.664 285.506 114.52C285.098 114.352 284.486 114.256 283.67 114.232V113.512C284.078 113.536 284.582 113.56 285.182 113.584C285.806 113.608 286.418 113.62 287.018 113.62C287.546 113.62 288.05 113.608 288.53 113.584C289.01 113.56 289.442 113.536 289.826 113.512L302.534 133.096V117.688C302.534 116.8 302.45 116.116 302.282 115.636C302.138 115.156 301.826 114.808 301.346 114.592C300.89 114.376 300.194 114.256 299.258 114.232V113.512C299.69 113.536 300.254 113.56 300.95 113.584C301.67 113.608 302.33 113.62 302.93 113.62C303.554 113.62 304.166 113.608 304.766 113.584C305.39 113.56 305.894 113.536 306.278 113.512ZM318.993 113.332L327.777 135.976C328.137 136.888 328.545 137.5 329.001 137.812C329.457 138.1 329.877 138.256 330.261 138.28V139C329.781 138.952 329.193 138.928 328.497 138.928C327.801 138.904 327.105 138.892 326.409 138.892C325.473 138.892 324.597 138.904 323.781 138.928C322.965 138.928 322.305 138.952 321.801 139V138.28C323.025 138.232 323.805 138.028 324.141 137.668C324.477 137.284 324.405 136.48 323.925 135.256L317.229 117.364L317.805 116.896L311.541 133.168C311.157 134.128 310.929 134.944 310.857 135.616C310.785 136.264 310.845 136.78 311.037 137.164C311.253 137.548 311.601 137.824 312.081 137.992C312.585 138.16 313.209 138.256 313.953 138.28V139C313.281 138.952 312.573 138.928 311.829 138.928C311.109 138.904 310.437 138.892 309.813 138.892C309.213 138.892 308.697 138.904 308.265 138.928C307.857 138.928 307.473 138.952 307.113 139V138.28C307.593 138.16 308.085 137.884 308.589 137.452C309.093 136.996 309.549 136.228 309.957 135.148L318.417 113.332C318.513 113.332 318.609 113.332 318.705 113.332C318.801 113.332 318.897 113.332 318.993 113.332ZM323.385 128.632V129.352H312.657L313.017 128.632H323.385ZM334.577 134.896C335.201 134.896 335.741 135.124 336.197 135.58C336.653 136.036 336.881 136.576 336.881 137.2C336.881 137.824 336.653 138.364 336.197 138.82C335.741 139.276 335.201 139.504 334.577 139.504C333.953 139.504 333.413 139.276 332.957 138.82C332.501 138.364 332.273 137.824 332.273 137.2C332.273 136.576 332.501 136.036 332.957 135.58C333.413 135.124 333.953 134.896 334.577 134.896ZM340.623 113.512C341.127 113.536 341.787 113.56 342.603 113.584C343.419 113.608 344.223 113.62 345.015 113.62C346.143 113.62 347.223 113.608 348.255 113.584C349.287 113.56 350.019 113.548 350.451 113.548C352.395 113.548 354.003 113.824 355.275 114.376C356.571 114.928 357.531 115.684 358.155 116.644C358.803 117.58 359.127 118.636 359.127 119.812C359.127 120.532 358.983 121.3 358.695 122.116C358.407 122.932 357.903 123.7 357.183 124.42C356.487 125.14 355.527 125.74 354.303 126.22C353.079 126.676 351.531 126.904 349.659 126.904H346.203V126.184H349.299C351.003 126.184 352.299 125.92 353.187 125.392C354.099 124.84 354.711 124.12 355.023 123.232C355.359 122.32 355.527 121.312 355.527 120.208C355.527 118.312 355.071 116.848 354.159 115.816C353.271 114.76 351.735 114.232 349.551 114.232C348.447 114.232 347.727 114.436 347.391 114.844C347.055 115.252 346.887 116.08 346.887 117.328V135.184C346.887 136.048 346.959 136.696 347.103 137.128C347.247 137.56 347.523 137.848 347.931 137.992C348.363 138.136 348.987 138.232 349.803 138.28V139C349.251 138.952 348.555 138.928 347.715 138.928C346.899 138.904 346.071 138.892 345.231 138.892C344.295 138.892 343.419 138.904 342.603 138.928C341.787 138.928 341.127 138.952 340.623 139V138.28C341.439 138.232 342.051 138.136 342.459 137.992C342.891 137.848 343.179 137.56 343.323 137.128C343.467 136.696 343.539 136.048 343.539 135.184V117.328C343.539 116.44 343.467 115.792 343.323 115.384C343.179 114.952 342.891 114.664 342.459 114.52C342.051 114.352 341.439 114.256 340.623 114.232V113.512ZM346.347 126.292C347.643 126.34 348.663 126.4 349.407 126.472C350.151 126.52 350.751 126.568 351.207 126.616C351.687 126.664 352.143 126.724 352.575 126.796C354.183 127.06 355.335 127.552 356.031 128.272C356.751 128.968 357.279 130.06 357.615 131.548L358.515 135.22C358.755 136.276 358.995 137.044 359.235 137.524C359.499 137.98 359.895 138.196 360.423 138.172C360.831 138.148 361.167 138.016 361.431 137.776C361.719 137.536 362.019 137.212 362.331 136.804L362.871 137.2C362.367 137.944 361.839 138.52 361.287 138.928C360.759 139.312 360.003 139.504 359.019 139.504C358.131 139.504 357.351 139.24 356.679 138.712C356.007 138.184 355.503 137.152 355.167 135.616L354.375 132.016C354.159 130.984 353.907 130.096 353.619 129.352C353.355 128.584 352.971 127.984 352.467 127.552C351.987 127.12 351.267 126.904 350.307 126.904H346.419L346.347 126.292ZM371.671 113.116C372.871 113.116 373.783 113.26 374.407 113.548C375.031 113.812 375.583 114.112 376.063 114.448C376.351 114.616 376.579 114.748 376.747 114.844C376.939 114.916 377.119 114.952 377.287 114.952C377.527 114.952 377.695 114.82 377.791 114.556C377.911 114.292 378.007 113.896 378.079 113.368H378.907C378.883 113.776 378.847 114.268 378.799 114.844C378.775 115.396 378.751 116.14 378.727 117.076C378.727 117.988 378.727 119.2 378.727 120.712H377.899C377.827 119.56 377.575 118.456 377.143 117.4C376.711 116.344 376.075 115.48 375.235 114.808C374.419 114.136 373.339 113.8 371.995 113.8C370.723 113.8 369.667 114.184 368.827 114.952C368.011 115.72 367.603 116.728 367.603 117.976C367.603 119.056 367.879 119.968 368.431 120.712C368.983 121.432 369.715 122.092 370.627 122.692C371.563 123.268 372.571 123.892 373.651 124.564C374.899 125.332 376.003 126.1 376.963 126.868C377.947 127.612 378.715 128.44 379.267 129.352C379.843 130.264 380.131 131.368 380.131 132.664C380.131 134.2 379.783 135.472 379.087 136.48C378.391 137.488 377.467 138.244 376.315 138.748C375.163 139.252 373.891 139.504 372.499 139.504C371.227 139.504 370.219 139.36 369.475 139.072C368.731 138.784 368.095 138.484 367.567 138.172C367.039 137.836 366.631 137.668 366.343 137.668C366.103 137.668 365.923 137.8 365.803 138.064C365.707 138.328 365.623 138.724 365.551 139.252H364.723C364.771 138.748 364.795 138.16 364.795 137.488C364.819 136.792 364.831 135.892 364.831 134.788C364.855 133.684 364.867 132.292 364.867 130.612H365.695C365.791 132.052 366.055 133.396 366.487 134.644C366.943 135.892 367.627 136.9 368.539 137.668C369.475 138.412 370.711 138.784 372.247 138.784C373.039 138.784 373.783 138.628 374.479 138.316C375.199 137.98 375.787 137.464 376.243 136.768C376.699 136.048 376.927 135.124 376.927 133.996C376.927 133.012 376.687 132.16 376.207 131.44C375.751 130.696 375.103 130.012 374.263 129.388C373.423 128.74 372.439 128.08 371.311 127.408C370.183 126.712 369.127 126.004 368.143 125.284C367.159 124.564 366.367 123.736 365.767 122.8C365.191 121.84 364.903 120.688 364.903 119.344C364.903 117.928 365.215 116.764 365.839 115.852C366.487 114.916 367.327 114.232 368.359 113.8C369.391 113.344 370.495 113.116 371.671 113.116Z" fill="black"/>
<path d="M781.27 -61.318C797.346 -77.6505 804.275 -101.708 799.135 -123.339C793.994 -144.97 776.95 -163.541 755.161 -171.206C739.737 -176.636 721.796 -176.588 707.057 -169.287C692.318 -161.986 681.496 -146.958 681.599 -131.204C681.77 -103.945 711.33 -84.7783 716.431 -58.0198C720.214 -38.174 708.739 -16.9554 690.659 -6.16237C672.579 4.63067 649.185 5.55559 629.41 -1.47362C614.419 -6.79933 601.321 -16.2935 586.068 -20.9305C570.815 -25.5674 551.192 -23.626 542.516 -10.6036C533.84 2.41888 540.338 19.8924 550.959 31.2043C561.579 42.5163 569.818 50.3568 580.183 61.8784C591.988 75 592.098 95.0798 586.068 110C580.037 124.92 568.959 133 550.959 140C504.116 156.142 476.131 144.341 435.5 172C415.88 185.356 407.155 210.862 410 233.5C412.845 256.138 420.343 240.922 442.641 248.941C467.643 257.935 495.668 251.789 522.488 252.468C549.308 253.146 580.461 266.024 583.305 291.443C585.926 314.881 560.482 334.991 535.74 335.628C510.999 336.265 488.472 322.765 470.126 307.156C457.652 296.55 445.943 284.521 430.663 277.999C403.14 266.248 370.555 274.953 343.054 287.487C315.553 300.022 129.535 321.681 99.5 326C67.5404 330.596 213.5 226 173 181.5C132.5 137 52.3839 180.652 41 152C30.67 126 94.5 115.5 81 79C69.7042 48.4596 -34.9999 56.5 69 -35" stroke="#FDC52D" stroke-width="4" stroke-miterlimit="10"/>
</g>
<path d="M0 1H600V-1H0V1Z" fill="#F8F8F8" mask="url(#path-1-inside-1_182_1066)"/>
<defs>
<clipPath id="clip0_182_1066">
<path d="M0 0H600V200H0V0Z" fill="white"/>
</clipPath>
</defs>
</svg>
