<svg width="20" height="20" fill="none" xmlns="http://www.w3.org/2000/svg"><path d="M9.823 2.371c4.24 0 7.677 3.353 7.677 7.49 0 4.137-3.437 7.49-7.677 7.49a7.79 7.79 0 01-3.862-1.015L2.15 17.351l1.038-3.721a7.316 7.316 0 01-1.042-3.77c0-4.137 3.437-7.49 7.677-7.49zm-2.616 3.97l-.154.006a.752.752 0 00-.286.075.99.99 0 00-.225.17c-.092.085-.145.159-.2.23-.285.36-.437.802-.435 1.256.001.367.1.725.253 1.059.314.675.83 1.39 1.513 2.053.164.16.325.32.499.47a7.314 7.314 0 002.948 1.532l.436.065c.142.007.284-.003.427-.01a1.55 1.55 0 00.639-.173c.1-.05.199-.105.294-.165 0 0 .033-.02.096-.067.104-.075.167-.128.253-.216a.86.86 0 00.162-.226c.06-.122.12-.355.144-.549.018-.148.013-.23.01-.28-.002-.08-.07-.163-.145-.198l-.447-.195s-.668-.284-1.076-.465a.39.39 0 00-.136-.031.38.38 0 00-.29.095c-.004-.001-.055.041-.61.697a.269.269 0 01-.283.098 1.129 1.129 0 01-.146-.05c-.095-.039-.128-.054-.194-.08a4.642 4.642 0 01-1.209-.752c-.097-.082-.186-.172-.278-.259a4.74 4.74 0 01-.784-.95l-.045-.07a.685.685 0 01-.078-.154c-.03-.11.047-.199.047-.199s.186-.2.273-.307c.084-.105.156-.207.202-.28.09-.142.119-.288.071-.4a61.545 61.545 0 00-.666-1.53c-.045-.1-.18-.172-.302-.186a3.483 3.483 0 00-.124-.012 2.666 2.666 0 00-.31.003l.155-.006z" fill="#000" opacity=".9"/></svg>